<?xml version="1.0" standalone="no"?>
<!DOCTYPE svg PUBLIC "-//W3C//DTD SVG 1.1//EN" "http://www.w3.org/Graphics/SVG/1.1/DTD/svg11.dtd" >
<!--
2013-9-30: Created.
-->
<svg>
<metadata>
Created by iconfont
</metadata>
<defs>

<font id="iconfont" horiz-adv-x="1024" >
  <font-face
    font-family="iconfont"
    font-weight="500"
    font-stretch="normal"
    units-per-em="1024"
    ascent="896"
    descent="-128"
  />
    <missing-glyph />
    
    <glyph glyph-name="chuangjianzhibiao" unicode="&#58910;" d="M224.50688 662.61504h425.472c36.352 0 65.536-29.184 65.536-65.536v-229.376c0-36.352-29.184-65.536-65.536-65.536h-425.472c-36.352 0-65.536 29.184-65.536 65.536v229.376c0 35.84 29.184 65.536 65.536 65.536zM358.69696 35.08735999999999h-192.512c-20.48 0-36.352 16.384-36.352 36.864v620.032c0 20.48 16.384 36.864 36.864 36.864h620.032c19.968 0 36.864-16.384 36.864-36.352v-143.872c0-13.824 11.264-25.6 25.6-25.6s25.6 11.264 25.6 25.6v143.872c0 48.128-39.424 87.04-87.552 87.04h-621.056c-48.128 0-87.552-39.424-87.552-87.552v-620.032c0-48.128 38.912-87.552 87.04-87.552h192.512c13.824 0 25.6 11.264 25.6 25.6s-11.264 25.088-25.088 25.088z m489.984 61.952c-13.824 0-25.6-11.264-25.6-25.6 0-19.968-16.384-36.864-36.352-36.864h-2.56c-13.824 0-25.6-11.264-25.6-25.6 0-13.824 11.264-25.6 25.6-25.6h2.048c48.128 0 87.552 38.912 87.552 87.04v0.512c0.512 14.848-11.264 26.112-25.088 26.112zM670.50496 600.33536c0 13.824-11.264 25.6-25.6 25.6h-422.912c-13.824 0-25.6-11.264-25.6-25.6 0-13.824 11.264-25.6 25.6-25.6h422.912c14.336 0 25.6 11.264 25.6 25.6z m-448.512-177.664c-13.824 0-25.6-11.264-25.6-25.6 0-13.824 11.264-25.6 25.6-25.6h287.744c13.824 0 25.6 11.264 25.6 25.6 0 13.824-11.264 25.6-25.6 25.6h-287.744z m751.616-83.968l-141.312 141.312c-13.312 13.312-34.816 13.312-47.616 0l-324.608-324.608c-14.336-15.872-22.528-36.352-24.064-57.856v-87.552c0-37.376 30.208-67.584 67.584-67.584h87.552c21.504 1.024 41.984 9.728 57.856 24.064l324.608 324.608c13.312 12.8 13.312 34.304 0 47.616 0-0.512 0-0.512 0 0z m-359.936-336.384c-6.144-4.608-13.824-7.68-22.016-9.216h-87.552c-9.216 0-16.896 7.68-16.896 16.896v88.064c1.024 7.68 4.096 15.36 9.216 22.016l223.232 223.232 117.76-117.76-223.744-223.232z m259.072 259.072l-117.76 117.76 53.248 53.248 117.76-117.76-53.248-53.248z"  horiz-adv-x="1024" />

    
    <glyph glyph-name="linianzhibiao" unicode="&#58911;" d="M179.712 724.992c-29.184 0-53.248-23.552-53.248-53.248v-585.216c0-29.184 23.552-53.248 53.248-53.248h638.464c29.184 0 53.248 24.064 53.248 53.248V672.256c0 29.184-24.064 53.248-53.248 53.248l-638.464-0.512z m0 53.248h638.464c58.88 0 106.496-47.616 106.496-106.496v-585.216c0-58.88-47.616-106.496-106.496-106.496H179.712c-58.88 0-106.496 47.616-106.496 106.496V672.256c0 58.368 47.616 105.984 106.496 105.984zM226.304 616.448h547.328c35.328 0 64.512-28.672 64.512-64.512V133.12c0-35.328-28.672-64.512-64.512-64.512H226.304c-35.328 0-64.512 28.672-64.512 64.512V551.9359999999999c0.512 35.84 29.184 64.512 64.512 64.512zM286.208 347.13599999999997c14.848 0 26.624-11.776 26.624-26.624s-11.776-26.624-26.624-26.624H179.712c-14.848 0-26.624 11.776-26.624 26.624s11.776 26.624 26.624 26.624h106.496z m265.728 0c14.848 0 26.624-11.776 26.624-26.624s-11.776-26.624-26.624-26.624H445.952c-14.848 0-26.624 11.776-26.624 26.624s11.776 26.624 26.624 26.624h105.984z m266.24 0c14.848 0 26.624-11.776 26.624-26.624s-11.776-26.624-26.624-26.624H711.68c-14.848 0-26.624 11.776-26.624 26.624s11.776 26.624 26.624 26.624h106.496z m-531.968-133.12c14.848 0 26.624-11.776 26.624-26.624s-11.776-26.624-26.624-26.624H179.712c-14.848 0-26.624 11.776-26.624 26.624s11.776 26.624 26.624 26.624h106.496z m265.728 0c14.848 0 26.624-11.776 26.624-26.624s-11.776-26.624-26.624-26.624H445.952c-14.848 0-26.624 11.776-26.624 26.624s11.776 26.624 26.624 26.624h105.984z m266.24 0c14.848 0 26.624-11.776 26.624-26.624s-11.776-26.624-26.624-26.624H711.68c-14.848 0-26.624 11.776-26.624 26.624s11.776 26.624 26.624 26.624h106.496z m53.248 346.112c14.848 0 26.624-11.776 26.624-26.624 0-14.848-11.776-26.624-26.624-26.624H126.464c-14.848 0-26.624 11.776-26.624 26.624s11.776 26.624 26.624 26.624h744.96zM312.832 772.608c0 14.848 11.776 26.624 26.624 26.624s26.624-11.776 26.624-26.624v-106.496c0-14.848-11.776-26.624-26.624-26.624s-26.624 11.776-26.624 26.624V772.608z m318.976 0c0 14.848 11.776 26.624 26.624 26.624s26.624-11.776 26.624-26.624v-106.496c0-14.848-11.776-26.624-26.624-26.624s-26.624 11.776-26.624 26.624V772.608z"  horiz-adv-x="1024" />

    
    <glyph glyph-name="faqikaohe" unicode="&#58912;" d="M260.70528 664.69376h320c52.736 0 95.744-43.008 95.744-95.744v-447.488c0-52.736-43.008-95.744-95.744-95.744h-320c-52.736 0-95.744 43.008-95.744 95.744v447.488c-0.512 53.248 42.496 95.744 95.744 95.744zM849.408 216.06399999999996l24.064-24.064h-252.928c-18.432 0-33.792-14.848-33.792-33.792 0-18.432 14.848-33.792 33.792-33.792h252.928l-24.064-24.064c-12.8-13.312-12.288-34.816 1.024-47.616 12.8-12.288 33.28-12.288 46.08 0l81.408 81.408c0.512 0.512 0.512 1.024 1.024 1.024s0.512 0.512 0.512 0.512l0.512 0.512 0.512 0.512 0.512 0.512s0.512 0.512 0.512 1.024 0 0.512 0.512 0.512c0 0.512 0.512 0.512 0.512 1.024 0 0 0 0.512 0.512 0.512 0 0 0.512 0.512 0.512 1.024s0 0.512 0.512 0.512 0.512 0.512 0.512 1.024l0.512 0.512c0 0.512 0 0.512 0.512 1.024 0 0 0 0.512 0.512 0.512 0 0 0 0.512 0.512 0.512 0 0.512 0 0.512 0.512 1.024s0 0.512 0 0.512l0.512 1.024v0.512c0 0.512 0 0.512 0.512 1.024v0.512 1.024 0.512 1.024 0.512 1.024 1.024 4.096 1.024 1.024 1.024 0.512 1.024 0.512 1.024 0.512s0 0.512-0.512 1.024v0.512l-0.512 1.024v0.512s0 0.512-0.512 1.024 0 0.512-0.512 0.512 0 0.512-0.512 0.512 0 0.512-0.512 1.024l-0.512 0.512c0 0.512-0.512 0.512-0.512 1.024s0 0.512-0.512 0.512-0.512 0.512-0.512 1.024 0 0.512-0.512 0.512c0 0.512-0.512 0.512-0.512 1.024 0 0 0 0.512-0.512 0.512 0 0-0.512 0.512-0.512 1.024s-0.512 0.512-0.512 0.512l-0.512 0.512-0.512 0.512-0.512 0.512s-0.512 1.024-1.024 1.024l-81.408 80.896c-13.312 12.8-34.816 11.776-47.104-1.536-11.776-11.776-11.776-31.744 0-44.544zM655.36 594.432c0 18.432-14.848 33.28-33.28 33.792H221.184c-18.432 0-33.792-14.848-33.792-33.792 0-18.432 14.848-33.792 33.792-33.792h400.896c18.432 0 33.28 14.848 33.28 33.792z m0-201.216c0 18.432-14.848 33.28-33.28 33.792H221.184c-18.432 0-33.792-14.848-33.792-33.792 0-18.432 14.848-33.792 33.792-33.792h400.896c18.432 0 33.28 15.36 33.28 33.792z m-434.176-167.424c-18.432 0-33.792-14.848-33.792-33.792 0-18.432 14.848-33.792 33.792-33.792h200.704c18.432 0 33.792 14.848 33.792 33.792 0 18.432-14.848 33.792-33.792 33.792H221.184zM620.544-8.70399999999995H152.064c-18.432 0-33.28 14.848-33.28 33.792V694.784c0 18.432 14.848 33.28 33.28 33.792h537.088c18.432 0 33.28-14.848 33.28-33.792v-335.36c0-18.432 14.848-33.28 33.28-33.28s33.28 14.848 33.28 33.28v368.64c0 36.864-29.696 67.072-66.56 67.072H118.784c-36.864 0-66.56-30.208-66.56-67.072v-737.28c0-36.864 29.696-67.072 66.56-67.072h501.248c18.432 0 33.792 14.848 33.792 33.792 0 18.432-14.848 33.28-33.28 33.792zM520.192 58.879999999999995c0-18.432 14.848-33.28 33.28-33.792h67.072c18.432 0 33.792 14.848 33.792 33.792 0 18.432-14.848 33.792-33.792 33.792h-67.072c-17.92-0.512-33.28-15.36-33.28-33.792z"  horiz-adv-x="1024" />

    
    <glyph glyph-name="shujucaiji" unicode="&#58913;" d="M283.84768 620.47744h473.088c37.376 0 67.584-30.208 67.584-67.584v-439.296c0-37.376-30.208-67.584-67.584-67.584h-473.088c-37.376 0-67.584 30.208-67.584 67.584v439.296c0 37.376 30.208 67.584 67.584 67.584zM253.9008 179.81439999999998c-15.872 0-28.672 12.8-28.672 28.16 0 7.68 3.072 14.848 8.192 20.48l175.616 175.616c11.264 11.264 29.184 11.264 40.448 0l103.424-103.424 125.44 125.44-49.664 49.664 152.064 25.088-10.752-166.912-51.2 51.2-143.36-142.848c-0.512-1.024-1.536-2.048-2.56-2.56-11.264-11.264-29.184-11.264-40.448 0l-103.424 103.424-155.648-155.648c-4.608-4.608-12.288-7.68-19.456-7.68zM163.7888-87.44960000000003c-37.376 0-67.072 30.208-67.584 67.584V687.7184c0 37.376 30.208 67.072 67.584 67.584h95.744v81.92c0 15.872 12.8 28.672 28.672 28.16 15.872 0 28.16-12.8 28.16-28.16v-81.92h172.544v81.92c0 15.872 12.8 28.672 28.16 28.672 15.872 0 28.672-12.8 28.672-28.16v-81.92h173.056v81.92c0 15.872 12.8 28.672 28.16 28.672 15.872 0 28.672-12.8 28.672-28.16v-81.92h95.744c37.376 0 67.072-30.208 67.584-67.584v-708.096c0-37.376-30.208-67.072-67.584-67.584l-707.584-0.512z m704 71.168V683.6224H167.8848v-699.904h699.904z"  horiz-adv-x="1024" />

    
    <glyph glyph-name="heduifankui" unicode="&#58914;" d="M341.504 626.46272h372.224c51.2 0 93.184-41.472 93.184-93.184v-403.456c0-51.2-41.472-93.184-93.184-93.184H341.504c-51.2 0-93.184 41.472-93.184 93.184v403.456c0 51.712 41.472 93.184 93.184 93.184zM903.168 525.59872v29.696l-239.616 239.616H244.224c-66.048 0-119.808-53.76-119.808-119.808v-658.944c0-66.048 53.76-119.808 119.808-119.808H783.36c66.048 0 119.808 53.76 119.808 119.808v509.44z m-239.616 149.504l119.808-119.808h-119.808v119.808z m179.712-658.944c0-33.28-26.624-59.904-59.904-59.904H244.224c-33.28 0-59.904 26.624-59.904 59.904v658.944c0 33.28 26.624 59.904 59.904 59.904h359.424v-209.92c0-16.384 13.312-30.208 30.208-30.208h209.92v-478.72z m-477.696 323.584c-17.408 17.92-45.568 18.432-63.488 1.024s-18.432-45.568-1.024-63.488l1.024-1.024 105.984-105.984c9.216-4.608 16.896-11.776 20.992-20.992 17.408-17.408 46.08-17.408 63.488 0l232.96 232.96c17.408 17.92 16.896 46.08-1.024 63.488-17.408 16.896-45.056 16.896-62.464 0l-201.216-201.728-95.232 95.744z"  horiz-adv-x="1024" />

    
    <glyph glyph-name="yijianhuizong" unicode="&#58915;" d="M278.016 617.9839999999999h514.56c31.744 0 57.344-25.6 57.344-57.344v-228.864c0-31.744-25.6-57.344-57.344-57.344H278.016c-31.744 0-57.344 25.6-57.344 57.344V561.152c0 31.232 25.6 56.832 57.344 56.832zM894.35136 778.752h-728.576c-37.376 0-67.072-30.72-67.072-67.584v-498.688c0-37.376 29.696-67.584 67.072-67.584h184.832l167.424-169.472c6.656-6.656 16.896-6.656 23.552 0l167.424 169.472h184.832c37.376 0 67.072 30.72 67.072 67.584V711.168c0.512 36.864-29.696 67.072-66.56 67.584m4.608-66.56v-491.008h-177.152c-24.576 0-48.128-9.728-65.536-27.648l-126.464-128-126.464 128c-17.408 17.408-40.96 27.648-65.536 27.648h-176.64V712.192h737.792z m-626.688-251.904c0.512 31.744 26.624 57.344 57.856 56.832 31.744-0.512 57.344-26.624 56.832-57.856-0.512-31.232-26.112-56.832-57.344-56.832-31.744 0-57.344 26.112-57.344 57.856m200.192 0c0.512 31.744 26.624 57.344 57.856 56.832 31.744-0.512 57.344-26.624 56.832-57.856-0.512-31.232-26.112-56.832-57.344-56.832-31.744 0-57.344 26.112-57.344 57.856m201.728 0c0.512 31.744 26.624 57.344 57.856 56.832 31.744-0.512 57.344-26.624 56.832-57.856-0.512-31.744-26.112-56.832-57.344-56.832-31.744 0-57.344 26.112-57.344 57.856"  horiz-adv-x="1024" />

    
    <glyph glyph-name="jieguofabu" unicode="&#58916;" d="M244.224 525.21984h526.336c48.64 0 87.552-39.424 87.552-87.552v-292.352c0-48.64-39.424-87.552-87.552-87.552H244.224c-48.64 0-87.552 39.424-87.552 87.552v292.352c-0.512 48.128 38.912 87.552 87.552 87.552zM760.832-87.30624H245.76c-114.176 0-206.848 92.672-206.848 206.848v357.888c0 114.176 92.672 206.336 206.848 206.848h515.072c114.176 0 206.336-92.672 206.848-206.848v-357.888c0-114.176-92.672-206.848-206.848-206.848zM245.76 625.90976c-81.92 0-148.48-66.56-148.48-148.48v-357.888c0-81.92 66.56-148.48 148.48-148.48h515.072c81.92 0 148.48 66.56 148.48 148.48v357.888c0 81.92-66.56 148.48-148.48 148.48H245.76zM303.616 147.70176000000004c0.512-14.848-11.264-27.648-26.112-28.16-14.848-0.512-27.648 11.264-28.16 26.112v291.328c0.512 14.848 13.312 26.624 28.16 26.112 14.336-0.512 25.6-11.776 26.112-26.112v-289.28zM742.912 137.46176000000003c0-13.824-11.264-25.088-25.088-25.088H274.432c-13.824-0.512-25.6 9.728-26.112 23.552-0.512 13.824 9.728 25.6 23.552 26.112h446.464c13.312 0 24.576-11.264 24.576-24.576z m-261.12 224.768c-9.728 10.24-26.112 10.24-36.352 0.512l-78.848-79.36c-10.24-10.24-10.24-26.624 0-36.864 9.728-10.24 26.112-10.24 36.352-0.512l79.36 78.848c9.728 10.752 9.728 27.136-0.512 37.376zM564.736 247.02976c10.24 9.728 10.24 26.112 0 36.352l-79.36 78.848c-10.24 10.24-26.624 10.24-36.864 0-10.24-9.728-10.24-26.112 0-36.352l78.848-78.848c10.752-10.24 27.136-10.24 37.376 0zM649.216 362.22976000000006c-9.728 10.24-26.112 10.24-36.352 0.512l-79.36-78.848c-10.24-10.24-10.24-26.624 0-36.864 9.728-10.24 26.112-10.24 36.352-0.512l79.36 78.848c9.728 10.24 9.728 26.624 0 36.864zM714.24 427.25376c-9.728 10.24-26.112 10.24-36.352 0.512l-79.36-78.848c-10.24-10.24-10.24-26.624 0-36.864 9.728-10.24 26.112-10.24 36.352-0.512l79.36 78.848c10.24 10.24 10.24 27.136 0 36.864zM97.792 491.25376H39.936c0 51.2-0.512 120.832-0.512 120.832 0 112.128 91.136 203.264 203.264 203.264h136.704c123.392 0 194.56-66.56 194.56-182.784h-57.856c0 83.968-44.544 124.928-136.192 124.928H242.688c-80.384 0-145.408-65.024-145.408-145.408 0 0 0.512-69.632 0.512-120.832z"  horiz-adv-x="1024" />

    
    <glyph glyph-name="liebiao" unicode="&#58917;" d="M402.60608 742.912h500.736c39.424 0 71.68-32.256 71.68-71.68s-32.256-71.68-71.68-71.68h-500.736c-39.424 0-71.68 32.256-71.68 71.68 0.512 39.424 32.256 71.68 71.68 71.68zM402.60608 420.864h500.736c39.424 0 71.68-32.256 71.68-71.68s-32.256-71.68-71.68-71.68h-500.736c-39.424 0-71.68 32.256-71.68 71.68 0.512 39.424 32.256 71.68 71.68 71.68zM384.68608 62.976h536.576c29.696 0 53.76-24.064 53.76-53.76s-24.064-53.76-53.76-53.76h-536.576c-29.696 0-53.76 24.064-53.76 53.76 0.512 29.696 24.576 53.76 53.76 53.76zM396.8 576h515.584c51.712 0 93.696 41.984 93.696 93.696 0 51.712-41.984 93.696-93.696 93.696H396.8c-51.712 0-93.696-41.984-93.696-93.696 0-51.712 41.984-93.696 93.696-93.696z m0 140.8h515.584c26.112 0 47.104-20.992 47.104-46.592 0-26.112-20.992-47.104-46.592-47.104H396.8c-26.112 0-47.104 20.992-47.104 46.592 0.512 26.112 21.504 47.104 47.104 47.104zM162.816 763.392c-51.712 0-93.696-41.984-93.696-93.696 0-51.712 41.984-93.696 93.696-93.696s93.696 41.984 93.696 93.696c0 51.712-41.984 93.696-93.696 93.696z m0-140.288c-26.112 0-47.104 20.992-47.104 47.104s20.992 47.104 47.104 47.104S209.92 696.3199999999999 209.92 670.208c-0.512-26.112-21.504-47.104-47.104-47.104zM912.384 435.2H396.8c-51.712 0-93.696-41.984-93.696-93.696 0-51.712 41.984-93.696 93.696-93.696h515.584c51.712 0 93.696 41.984 93.696 93.696 0.512 51.712-41.472 93.696-93.696 93.696z m0-140.288H396.8c-26.112 0-47.104 20.992-47.104 46.592 0 26.112 20.992 47.104 46.592 47.104h515.584c26.112 0 47.104-20.992 47.104-46.592 0.512-26.112-20.48-47.104-46.592-47.104 0.512 0 0.512 0 0 0zM162.816 435.2c-51.712 0-93.696-41.984-93.696-93.696s41.984-93.696 93.696-93.696 93.696 41.984 93.696 93.696c0 52.224-41.984 93.696-93.696 93.696z m0-140.288c-26.112 0-47.104 20.992-47.104 47.104s20.992 47.104 47.104 47.104 47.104-20.992 47.104-47.104c-0.512-26.112-21.504-47.104-47.104-47.104zM912.384 107.51999999999998H396.8c-51.712 0-93.696-41.984-93.696-93.696 0-51.712 41.984-93.696 93.696-93.696h515.584c51.712 0 93.696 41.984 93.696 93.696 0.512 51.712-41.472 93.696-93.696 93.696z m0-140.8H396.8c-26.112 0-47.104 20.992-47.104 46.592 0 26.112 20.992 47.104 46.592 47.104h515.584c26.112 0 47.104-20.992 47.104-46.592 0.512-26.112-20.48-47.104-46.592-47.104 0.512 0 0.512 0 0 0zM162.816 107.51999999999998c-51.712 0-93.696-41.984-93.696-93.696 0-51.712 41.984-93.696 93.696-93.696s93.696 41.984 93.696 93.696c0 51.712-41.984 93.696-93.696 93.696z m0-140.8c-26.112 0-47.104 20.992-47.104 47.104s20.992 47.104 47.104 47.104 47.104-20.992 47.104-47.104c-0.512-26.112-21.504-47.104-47.104-47.104z"  horiz-adv-x="1024" />

    
    <glyph glyph-name="shenhe" unicode="&#58918;" d="M370.176 679.19872h401.92c55.296 0 100.352-45.056 100.352-100.352v-435.712c0-55.296-45.056-100.352-100.352-100.352H370.176c-55.296 0-100.352 45.056-100.352 100.352v435.712c0 55.296 45.056 100.352 100.352 100.352zM977.408 570.14272v32.256l-259.072 259.072H265.216c-71.68 0-129.536-57.856-129.536-129.536v-712.192c0-71.68 57.856-129.536 129.536-129.536h582.656c71.68 0 129.536 57.856 129.536 129.536v550.4z m-259.072 161.792l129.536-129.536h-129.536v129.536z m194.048-712.192c0-35.84-29.184-64.512-64.512-64.512H265.216c-35.84 0-64.512 29.184-64.512 64.512v712.192c0 35.84 29.184 64.512 64.512 64.512h388.608v-226.816c0-17.92 14.336-32.256 32.256-32.256h226.816v-517.632z m-516.096 349.696c-18.944 19.456-49.664 19.456-68.608 1.024-19.456-18.944-19.456-49.664-1.024-68.608l1.024-1.024 114.688-114.688c10.24-4.608 17.92-12.8 23.04-23.04 18.944-18.944 49.664-18.944 68.608 0l251.904 251.904c18.944 19.456 18.432 50.176-1.024 68.608-18.944 18.432-48.64 18.432-67.584 0l-217.6-217.6-103.424 103.424z"  horiz-adv-x="1024" />

    
    <glyph glyph-name="gaijin" unicode="&#58919;" d="M303.616 676.864h407.552c75.264 0 135.68-60.928 135.68-135.68v-373.76c0-75.264-60.928-135.68-135.68-135.68H303.616c-75.264 0-135.68 60.928-135.68 135.68v373.76c0 74.752 60.928 135.68 135.68 135.68zM867.80928-70.12351999999998h-720.896c-45.056 0-81.408 36.352-81.408 81.408v720.384c0 45.056 36.352 81.408 81.408 81.408h493.056c14.336 0 26.112-11.776 26.112-26.112s-11.776-26.112-26.112-26.112h-493.056c-16.384 0-29.696-13.312-29.696-29.696v-720.896c0-16.384 13.312-29.696 29.696-29.696h720.896c16.384 0 29.696 13.312 29.696 29.696v493.568c0 14.336 11.776 26.112 26.112 26.112s26.112-11.776 26.112-26.112v-492.544c-0.512-45.056-37.376-81.92-81.92-81.408zM310.75328 141.33248000000003c-9.216-0.512-17.92 3.072-24.576 9.216-8.192 9.216-11.264 22.016-8.704 33.792 1.536 9.216 4.096 17.92 7.168 27.136 8.192 23.04 17.408 45.056 27.648 67.072 18.432 42.496 41.984 82.432 70.656 118.784l384 384c43.52 39.424 110.08 35.84 149.504-7.168 36.352-40.448 36.352-101.888 0-142.336l-384-384c-33.28-25.6-69.12-47.616-107.008-65.024-35.328-19.968-74.24-33.792-114.688-41.472z m531.456 618.496c-14.336 0-28.16-5.632-38.4-15.872l-384-384c-22.016-28.672-40.448-59.904-54.784-92.672-11.264-22.016-20.992-44.544-29.696-68.096 23.04 8.704 46.08 18.432 68.096 29.696 32.768 14.848 64 33.28 92.672 54.784l384 384c20.992 20.992 20.992 55.296 0 76.288-10.24 10.24-24.064 16.384-37.888 15.872zM785.37728 762.38848l113.152-113.152-36.864-36.864-113.152 113.152 36.864 36.864z m-349.184-349.184l113.152-113.152-36.864-36.864-113.152 113.152 36.864 36.864z"  horiz-adv-x="1024" />

    
    <glyph glyph-name="tongzhi" unicode="&#58920;" d="M295.2192 501.20704h-183.296c-17.92 0-32.768 14.848-32.768 32.768 0 17.92 14.848 32.768 32.768 32.768h183.296c17.92 0 32.768-14.848 32.768-32.768s-14.848-32.768-32.768-32.768zM111.9232 297.43104000000005c-17.92 0-32.768 14.848-32.768 32.768v203.776c0 17.92 14.848 32.768 32.768 32.768 17.92 0 32.768-14.848 32.768-32.768v-203.776c0-17.92-14.336-32.768-32.256-32.768 0-0.512-0.512-0.512-0.512 0zM630.5792 253.39904c-17.92 0-32.768 14.848-32.768 32.768v410.624c0 2.048-1.536 3.584-3.072 3.584h-0.512c-0.512 0-1.024 0-1.536-0.512-0.512-0.512-1.024-0.512-1.536-1.024l-276.992-192c-15.36-10.24-35.84-5.632-46.08 9.216-9.728 14.848-6.144 34.304 7.68 44.544l279.04 194.048c1.024 0.512 1.536 1.024 3.072 1.536 10.752 6.656 23.552 10.24 36.352 10.24 37.888 0 69.12-31.232 69.12-69.12v-411.136c1.024-17.408-12.8-32.256-30.208-33.28-1.024 0.512-1.536 0.512-2.56 0.512zM295.2192 141.78304000000003h-183.296c-17.92 0-32.768 14.848-32.768 32.768 0 17.92 14.848 32.768 32.768 32.768h183.296c17.92 0 32.768-14.848 32.768-32.768 0-18.432-14.848-32.768-32.768-32.768zM111.9232 141.78304000000003c-17.92 0-32.768 14.848-32.768 32.768v203.776c0 17.92 14.848 32.768 32.768 32.768 17.92 0 32.768-14.848 32.768-32.768v-203.776c0-17.92-14.848-32.768-32.768-32.768zM594.7392-58.920960000000036c-12.8 0-25.6 3.584-36.864 10.24-1.024 0.512-1.536 1.024-3.072 1.536l-279.04 194.048c-14.848 10.752-17.408 31.744-6.656 46.08 10.24 13.824 30.208 17.408 44.544 7.68l276.992-193.024c0.512-0.512 1.024-0.512 1.536-1.024 0.512-0.512 1.024-0.512 1.536-0.512 2.048 0 3.584 1.536 3.584 3.584v411.136c0 17.92 14.848 32.768 32.768 32.768 17.92 0 32.768-14.848 32.768-32.768v-410.624c0.512-37.888-29.696-69.12-67.584-69.632 0.512 0.512 0 0.512-0.512 0.512zM693.0432 198.61504000000002c-17.92 0-32.768 14.848-32.768 32.768 0 15.872 11.264 29.184 27.136 32.256 49.664 8.704 82.944 55.808 74.24 105.472-6.656 37.888-36.352 67.584-74.24 74.24-17.92 2.56-30.208 19.456-27.648 37.376s19.456 30.208 37.376 27.648c0.512 0 1.024 0 1.536-0.512 85.504-14.848 142.848-96.256 128-181.76-11.264-65.536-62.464-116.736-127.488-128-2.048 0.512-4.096 0.512-6.144 0.512zM971.0592 321.49504h-99.328c-17.92 0-32.768 14.848-32.768 32.768 0 17.92 14.848 32.768 32.768 32.768h99.328c17.92 0 32.768-14.848 32.768-32.768 0-17.92-14.336-32.768-32.768-32.768zM841.0112 635.86304c-8.704 0-16.896 3.584-23.04 9.728-12.8 12.8-12.8 33.792 0 46.592l68.096 68.096c13.312 12.288 34.304 11.776 46.592-1.536 11.776-12.8 11.776-32.256 0-45.056l-68.096-68.096c-6.144-6.144-14.848-9.728-23.552-9.728zM909.1072-61.48095999999998c-8.704 0-16.896 3.584-23.04 9.728l-68.096 68.096c-12.288 13.312-11.776 34.304 1.536 46.592 12.8 11.776 32.256 11.776 45.056 0l68.096-68.096c12.8-12.8 12.8-33.792 0-46.592-6.656-6.656-14.848-9.728-23.552-9.728zM394.752 512.512l114.176 51.2c31.744 0 57.344-25.6 57.344-57.344v-302.592c0-31.744-25.6-57.344-57.344-57.344l-114.176 51.2c-31.744 0-57.344 25.6-57.344 57.344V455.168c0 31.744 25.6 57.344 57.344 57.344z"  horiz-adv-x="1024" />

    
    <glyph glyph-name="mingxi" unicode="&#58921;" d="M313.856 590.336h284.16c47.104 0 84.992-40.448 84.992-90.624v-331.776c0-50.176-38.4-90.624-84.992-90.624H313.856c-47.104 0-84.992 40.448-84.992 90.624V500.224c-0.512 49.664 37.888 90.112 84.992 90.112zM635.13088-47.67744000000005h-357.376c-85.504 0-155.136 69.632-155.136 155.136v466.944c0 85.504 69.632 155.136 155.136 155.136h357.376c85.504 0 155.136-69.632 155.136-155.136v-466.944c0-86.016-69.632-155.136-155.136-155.136z m-357.888 720.896c-54.784 0-99.328-44.544-99.328-99.328v-466.944c0-54.784 44.544-99.328 99.328-99.328h357.376c54.784 0 99.328 44.544 99.328 99.328v466.944c0 54.784-44.544 99.328-99.328 99.328h-357.376zM635.13088 476.09856h-358.4c-15.36 0-28.16 12.288-28.16 27.648 0 15.36 12.288 28.16 27.648 28.16h358.4c15.36 0 28.16-12.8 27.648-28.16 1.024-15.36-11.776-27.648-27.136-27.648zM635.13088 312.77056000000005h-358.4c-15.36 0-28.16 12.288-28.16 27.648 0 15.36 12.288 28.16 27.648 28.16h358.4c15.36 0 28.16-12.8 27.648-28.16 1.024-14.848-11.776-27.648-27.136-27.648zM635.13088 149.95456000000001h-358.4c-15.36 0-28.16 12.288-28.16 28.16 0 15.36 12.288 28.16 28.16 28.16h358.4c15.36 0 28.16-12.288 28.16-28.16s-12.288-28.16-28.16-28.16z"  horiz-adv-x="1024" />

    
    <glyph glyph-name="shehuipingjia" unicode="&#58922;" d="M517.01248 363.11551999999995m-311.808 0a311.808 311.808 0 1 1 623.616 0 311.808 311.808 0 1 1-623.616 0ZM503.40352-98.50368000000003c-262.656-0.512-476.16 211.968-476.672 475.136-0.512 262.656 211.968 476.16 475.136 476.672 262.656 0.512 476.16-211.968 476.672-475.136 0-86.528-23.552-172.032-68.096-246.272l61.952-186.88c5.12-14.848-3.072-30.208-17.92-35.328-5.632-2.048-11.776-2.048-17.408 0l-185.344 61.44a477.2864 477.2864 0 0 0-248.32-69.632z m0 893.952c-231.424 0.512-419.328-186.88-419.84-418.304-0.512-231.424 186.88-419.328 418.304-419.84 81.92 0 161.792 23.552 230.4 68.608 7.168 4.608 15.872 5.632 24.064 3.072l145.408-48.128-48.64 146.432c-2.56 8.192-1.536 16.896 3.072 24.064 124.928 194.56 68.608 453.12-125.952 578.56-67.584 42.496-145.92 66.048-226.816 65.536zM503.40352 165.17632000000003c-7.168 0-14.336 3.072-19.968 8.192l-165.888 166.4c-56.832 56.832-56.832 148.992 0 205.824 49.664 49.664 128 56.832 185.856 16.384 66.048 46.08 156.672 29.696 202.752-36.352 40.448-57.856 33.28-136.192-16.384-185.856l-166.4-166.4c-5.12-5.632-12.288-8.192-19.968-8.192z m-82.944 367.104c-49.664 0-89.6-39.936-89.6-89.6 0-24.064 9.216-46.592 26.112-63.488l146.432-146.432 146.432 146.432c34.304 35.84 32.768 92.672-3.072 126.976-34.816 33.28-89.088 33.28-123.904 0-10.752-10.752-28.672-10.752-39.424 0-16.384 16.384-39.424 26.112-62.976 26.112z"  horiz-adv-x="1024" />

    
    <glyph glyph-name="jifen" unicode="&#58923;" d="M333.824 706.048h376.32c37.888 0 68.608-30.72 68.608-68.608v-513.024c0-37.888-30.72-68.608-68.608-68.608H333.824c-37.888 0-68.608 30.72-68.608 68.608V637.44c0 37.888 30.72 68.608 68.608 68.608zM682.62912 242.688s-23.552 61.952-17.92 67.584c5.632 5.632 67.072-17.92 67.072-17.92l-49.152-49.664z m196.096-97.792l-49.664-50.176-142.848 144.384 49.664 50.176 142.848-144.384z m-34.816-66.048c1.536-1.536 4.608-1.536 6.144 0l43.52 44.032c1.536 1.536 1.536 4.608 0 6.144l-12.8 12.8-49.664-50.176 12.8-12.8zM728.70912 624.64c0-6.656-2.56-12.288-7.168-16.896-4.608-4.608-10.752-7.168-16.896-7.168h-384c-13.312 0-24.576 10.752-24.576 24.576 0 13.312 10.752 24.576 24.576 24.576h383.488c6.656 0 12.8-2.56 16.896-7.168 5.12-5.12 7.68-11.264 7.68-17.92z m-53.76-143.36c0-6.656-2.56-12.288-7.168-16.896-4.608-4.608-10.752-7.168-16.896-7.168h-299.52c-13.312 0-24.576 10.752-24.576 24.576 0 13.312 10.752 24.576 24.576 24.576h299.52c12.8-1.024 23.552-11.776 24.064-25.088z m-60.928-124.928c0-6.144-1.536-11.776-4.096-16.896-1.536-4.096-5.632-6.656-9.728-7.168h-173.568c-7.68 0-13.824 10.752-13.824 24.576s6.144 24.576 13.824 24.576h174.08c6.656-0.512 13.312-11.776 13.312-25.088zM780.42112-80.38400000000001h-534.528c-60.928 0.512-110.08 49.664-109.568 110.592V693.76c0 60.928 49.152 110.592 109.568 110.592h534.528c60.928-0.512 110.08-49.664 109.568-110.592v-399.872c0-11.776-9.728-21.504-21.504-21.504s-21.504 9.728-22.016 21.504V693.76c0 36.864-29.696 66.56-66.56 67.072h-534.016c-36.864 0-66.56-30.208-66.56-67.072V30.720000000000027c0-36.864 29.696-67.072 66.56-67.072h534.528c61.44 0 66.56 15.36 66.56 35.328 0 11.776 9.728 21.504 21.504 21.504 11.776 0 21.504-9.728 22.016-21.504 2.048-27.648-12.8-53.76-37.376-66.56-23.552-9.728-48.128-14.336-72.704-12.8z"  horiz-adv-x="1024" />

    
    <glyph glyph-name="jifenhuizong" unicode="&#58924;" d="M263.68 659.456h528.896c36.352 0 66.048-29.696 66.048-66.048v-330.24c0-36.352-29.696-66.048-66.048-66.048H263.68c-36.352 0-66.048 29.696-66.048 66.048V593.408c0 36.864 29.696 66.048 66.048 66.048zM926.09536 255.27808000000005v391.168c-1.024 49.152-41.472 88.576-90.624 87.552h-628.736c-49.152 1.024-90.112-38.4-90.624-87.552v-413.696c1.024-49.152 41.472-88.576 90.624-88.064h608.768c60.928 0 110.592 49.664 110.592 110.592z m-110.592-183.808h-608.768c-90.112-1.024-163.84 71.68-164.352 161.792v413.696c1.024 90.112 74.752 162.304 164.352 161.28h628.736c90.112 1.024 163.84-71.68 164.352-161.28v-391.168c0-101.888-82.432-184.32-184.32-184.32zM263.05536 439.59808h36.864c17.92 2.56 34.304-9.728 36.864-27.648 0.512-3.072 0.512-6.144 0-9.216v-73.728c2.56-17.92-9.728-34.304-27.648-36.864-3.072-0.512-6.144-0.512-9.216 0-17.92-2.56-34.304 9.728-36.864 27.648-0.512 3.072-0.512 6.144 0 9.216v73.728c-2.56 17.92 9.728 34.304 27.648 36.864 3.072 0.512 6.144 0.512 9.216 0h-36.864zM520.59136 587.05408c17.92 2.56 34.304-9.728 36.864-27.648 0.512-3.072 0.512-6.144 0-9.216v-221.184c2.56-17.92-9.728-34.304-27.648-36.864-3.072-0.512-6.144-0.512-9.216 0-17.92-2.56-34.304 9.728-36.864 27.648-0.512 3.072-0.512 6.144 0 9.216v221.184c-2.56 17.92 9.728 34.304 27.648 36.864h9.216zM741.77536 513.32608c17.92 2.56 34.304-9.728 36.864-27.648 0.512-3.072 0.512-6.144 0-9.216v-147.456c2.56-17.92-9.728-34.304-27.648-36.864-3.072-0.512-6.144-0.512-9.216 0-17.92-2.56-34.304 9.728-36.864 27.648-0.512 3.072-0.512 6.144 0 9.216v147.456c-2.56 17.92 9.728 34.304 27.648 36.864 3.072 0.512 6.144 0.512 9.216 0zM263.05536-39.121920000000046h515.584c17.92 2.56 34.304-9.728 36.864-27.648 0.512-3.072 0.512-6.144 0-9.216 2.56-17.92-9.728-34.304-27.648-36.864-3.072-0.512-6.144-0.512-9.216 0h-515.584c-17.92-2.56-34.304 9.728-36.864 27.648-0.512 3.072-0.512 6.144 0 9.216-2.56 17.92 9.728 34.304 27.648 36.864 3.072 0.512 6.144 0.512 9.216 0z"  horiz-adv-x="1024" />

    
    <glyph glyph-name="shenhe1" unicode="&#58925;" d="M249.23136 742.05696h432.128c31.744 0 57.856-25.6 57.856-57.856v-547.328c0-31.744-25.6-57.856-57.856-57.856h-432.128c-31.744 0-57.856 25.6-57.856 57.856v547.328c0.512 32.256 26.112 57.856 57.856 57.856zM398.848-56.831999999999994H195.072c-57.344 0-103.424 46.592-103.936 103.936V766.976C91.136 824.3199999999999 137.728 870.4 195.072 870.912h527.36c57.344 0 103.424-46.592 103.936-103.936v-281.088c0-15.872-12.8-28.672-28.672-28.672-15.872 0-28.672 12.8-28.672 28.672V766.976c0 25.6-20.992 46.592-46.592 46.592h-527.36c-25.6 0-46.592-20.992-46.592-46.592v-719.872c0-25.6 20.992-46.592 46.592-46.592h203.264c15.872 0 28.672-12.8 28.672-28.672 0.512-15.872-12.288-28.672-28.16-28.672zM657.408 633.856H260.096c-15.872 0-28.672 12.8-28.672 28.672 0 15.872 12.8 28.672 28.672 28.672h397.312c15.872 0 28.672-12.8 28.672-28.672 0-15.872-12.8-28.672-28.672-28.672z m0-136.192H260.096c-15.872 0-28.672 12.8-28.672 28.672 0 15.872 12.8 28.672 28.672 28.672h397.312c15.872 0 28.672-12.8 28.672-28.672 0-15.872-12.8-28.672-28.672-28.672zM698.88 215.03999999999996c-64 0-116.224 51.712-116.224 116.224 0 64 51.712 116.224 116.224 116.224 64 0 116.224-51.712 116.224-116.224 0-64-52.224-116.224-116.224-116.224z m0 175.104c-32.768 0-58.88-26.624-58.88-58.88 0-32.768 26.624-58.88 58.88-58.88 32.768 0 58.88 26.624 58.88 58.88s-26.112 58.368-58.88 58.88zM817.664 61.952c-8.704 0-17.408 4.096-23.04 11.264l-94.208 123.904-98.304-124.416c-9.728-12.288-27.648-14.336-39.936-4.608-12.288 9.728-14.336 27.648-4.608 39.936l120.832 153.088c5.632 6.656 13.824 10.24 22.528 10.752 8.704 0 16.896-4.096 22.528-11.264l116.736-153.088c9.728-12.288 7.168-30.208-5.12-39.936-5.12-3.584-10.752-5.632-17.408-5.632zM839.168-100.86400000000003h-280.576c-57.344 0-103.936 46.592-103.936 103.936s46.592 103.936 103.936 103.936h280.576c57.344 0 103.936-46.592 103.936-103.936s-46.592-103.936-103.936-103.936z m-280.576 150.528c-25.6 0-46.592-20.992-46.592-47.104 0-25.6 20.992-46.592 46.592-46.592h280.576c25.6 0 46.592 20.992 46.592 47.104 0 25.6-20.992 46.592-46.592 46.592h-280.576z"  horiz-adv-x="1024" />

    
    <glyph glyph-name="jifenxiangqing" unicode="&#58926;" d="M283.9552 720.41984h465.92c34.304 0 61.952-27.648 61.952-61.952v-590.336c0-34.304-27.648-61.952-61.952-61.952h-465.92c-34.304 0-61.952 27.648-61.952 61.952v590.336c0 34.304 27.648 61.952 61.952 61.952zM797.184 356.86400000000003c13.824 0 27.648-5.632 37.376-15.36l32.256-32.256c20.48-20.48 20.48-53.76 0-74.752L609.28-22.52800000000002l-108.544-2.048 2.048 108.544 257.536 257.536c9.728 9.728 23.04 15.36 36.864 15.36m0 59.904c-29.696 0-58.368-11.776-79.872-32.768L450.56 117.24800000000005c-5.12-5.12-8.192-12.288-8.192-19.456l-3.584-184.32 183.808 3.584c7.168 0 14.336 3.072 19.456 8.192l266.752 266.752c44.032 44.032 44.032 115.2 0 159.744l-32.256 32.256c-20.992 21.504-49.664 33.28-79.36 32.768zM709.632 349.18399999999997l-42.496-42.496 156.16-156.16 42.496 42.496-156.16 156.16zM336.384-102.39999999999998H263.68c-78.848 0-142.848 64-142.848 142.848V717.312C120.832 796.16 184.32 860.16 263.68 860.16h498.176c78.848 0 142.848-64 142.848-142.848v-186.368c0-16.384-13.312-30.208-30.208-30.208-16.384 0-30.208 13.312-30.208 30.208V717.312c0 45.568-36.864 82.432-82.944 82.944H263.168c-45.568 0-82.432-36.864-82.944-82.944v-676.864c0-45.568 36.864-82.432 82.944-82.944h72.704c16.384 0 30.208-13.312 30.208-30.208s-13.312-29.696-29.696-29.696zM752.128 559.616h-481.28c-16.384 0-30.208 13.312-30.208 30.208 0 16.384 13.312 30.208 30.208 30.208h481.28c16.384 0 30.208-13.312 30.208-30.208 0-16.896-13.312-30.208-30.208-30.208zM571.904 378.88H271.36c-16.384 0-30.208 13.312-30.208 30.208 0 16.384 13.312 30.208 30.208 30.208h300.544c16.384 0 30.208-13.312 30.208-30.208-0.512-16.896-13.824-30.208-30.208-30.208z m-151.552-180.224H270.848c-16.384 0-30.208 13.312-30.208 30.208 0 16.384 13.312 30.208 30.208 30.208h149.504c16.384 0 30.208-13.312 30.208-30.208-0.512-16.896-13.824-30.208-30.208-30.208z"  horiz-adv-x="1024" />

    
    <glyph glyph-name="jiafenhuizong" unicode="&#58927;" d="M253.83424 501.73952h519.68c38.4 0 69.12-31.232 69.12-69.12v-311.808c0-38.4-31.232-69.12-69.12-69.12h-519.68c-38.4 0-69.12 31.232-69.12 69.12v311.808c-0.512 37.888 30.72 69.12 69.12 69.12zM903.31648 532.99712v-514.048h-786.432v514.048h786.432m50.176 84.48h-886.784c-18.944 0-34.304-14.848-34.304-33.792v-614.4c0-18.944 14.848-34.304 33.792-34.304H953.49248c18.944 0 34.304 14.848 34.304 33.792v614.4c0 18.944-15.36 34.304-34.304 34.304z m-137.216 104.96h-612.864c-23.04 0-41.984 18.944-41.984 41.984s18.944 41.984 41.984 41.984h613.376c23.04 0 41.984-18.944 41.984-41.984s-18.944-41.984-42.496-41.984zM648.34048 233.98911999999996h-275.968c-23.04 0-41.984 18.944-41.984 41.984s18.944 41.984 41.984 41.984h275.968c23.04 0 41.984-18.944 41.984-41.984s-18.944-41.984-41.984-41.984zM510.10048 96.26112c-23.04 0-41.984 18.944-41.984 41.984v275.968c0 23.04 18.944 41.984 41.984 41.984 23.04 0 41.984-18.944 41.984-41.984v-275.968c0.512-23.04-17.92-41.984-40.96-41.984h-1.024z"  horiz-adv-x="1024" />

    
    <glyph glyph-name="jiafenxiangqinghuizong" unicode="&#58928;" d="M285.27104 714.24h465.92c34.304 0 61.952-27.648 61.952-61.952v-310.784c0-34.304-27.648-61.952-61.952-61.952h-465.92c-34.304 0-61.952 27.648-61.952 61.952V652.288c0 34.304 27.648 61.952 61.952 61.952zM291.55328 558.36672c-16.896 0-30.72 13.312-31.232 30.72v0.512c0 17.408 13.824 31.232 31.232 31.232h436.736c16.896 0 30.72-13.312 31.232-30.72v-0.512c0-17.408-13.824-31.232-31.232-31.232h-436.736z m0-218.112c-16.896-1.536-32.256 11.264-33.792 28.16-1.536 16.896 11.264 32.256 28.16 33.792H728.28928c16.896-1.536 29.696-16.384 28.16-33.792-1.536-14.848-13.312-26.624-28.16-28.16h-436.736z m0-218.624c-16.896-1.536-32.256 11.264-33.792 28.16-1.536 16.896 11.264 32.256 28.16 33.792h130.56c16.896-1.536 29.696-16.384 28.16-33.792-1.536-14.848-13.312-26.624-28.16-28.16h-124.928zM798.43328 87.83871999999997c12.8 11.264 32.768 9.728 44.032-3.072 11.264-12.8 9.728-32.768-3.072-44.032l-149.504-130.048c-5.632-5.12-12.8-7.68-20.48-7.68h-467.968c-53.76 0.512-96.768 44.544-96.256 98.304v738.816c-0.512 53.76 42.496 97.792 96.256 98.304h617.984c53.76-0.512 96.768-44.544 96.256-98.304v-549.888c0-16.896-13.312-30.72-30.72-31.232h-0.512c-17.408 0-31.232 13.824-31.232 31.232v549.888c0.512 19.456-14.848 35.328-33.792 35.84h-618.496c-19.456-0.512-34.304-16.896-33.792-35.84v-738.816c-0.512-19.456 14.848-35.328 33.792-35.84h456.192l141.312 122.368zM697.05728-64.73728000000006c-1.536-16.896-16.384-29.696-33.792-28.16-14.848 1.536-26.624 13.312-28.16 28.16v181.248c-0.512 53.76 42.496 97.792 96.256 98.304h153.6c16.896 1.536 32.256-11.264 33.792-28.16 1.536-16.896-11.264-32.256-28.16-33.792h-159.232c-19.456-0.512-34.304-16.896-33.792-35.84l-0.512-181.76z"  horiz-adv-x="1024" />

    
    <glyph glyph-name="tubiao" unicode="&#58929;" d="M109.53216 165.02783999999997h118.272v-147.968h-118.272zM346.07616 401.57184h118.272v-384.512h-118.272zM553.43616 283.29984h118.272v-266.24h-118.272zM819.16416 549.53984h118.272v-502.784h-118.272zM169.92256 264.59136c34.304 0 62.464 28.16 61.952 62.464 0 8.192-1.536 15.872-4.608 23.552l147.968 147.968c7.68-3.072 15.36-4.608 23.552-4.608 14.848 0 28.672 5.632 39.936 15.36l128-64c0-1.536-1.024-2.56-1.024-4.096 0-34.304 27.648-62.464 61.952-62.464 34.304 0 62.464 27.648 62.464 61.952 0 8.192-1.536 16.384-4.608 24.064l148.992 186.368c31.744-12.8 68.096 2.56 80.896 34.304 9.216 23.04 4.096 49.664-13.824 67.072-24.576 23.552-63.488 23.552-88.064 0-17.92-17.92-23.04-44.544-13.312-68.096l-148.992-186.368c-20.992 7.68-45.056 4.096-62.464-10.752l-128.512 64c0 1.536 1.024 2.56 1.024 4.096 0 16.384-6.656 32.256-17.92 44.032-24.576 23.552-63.488 23.552-88.064 0-17.408-17.92-23.04-44.544-13.312-67.584l-148.48-148.48c-23.04 9.216-49.152 3.584-67.584-13.312-24.576-24.064-24.576-63.488-0.512-88.064 12.288-11.264 28.16-17.92 44.544-17.408z m677.888 454.144c5.632 5.12 14.848 5.12 19.968-1.024 5.12-5.632 5.12-13.824 0-19.456-5.632-5.12-14.336-5.12-19.968 0-5.632 6.144-5.632 14.848 0 20.48z m-229.376-267.264c5.632 5.632 14.336 5.632 19.968 0s5.632-14.336 0-19.968c-5.632-5.12-14.336-5.12-19.968 0-5.632 5.632-5.632 14.336 0 19.968z m-229.376 114.688c5.632 5.632 14.336 5.632 19.968 0s5.632-14.336 0-19.968c-5.632-5.12-14.336-5.12-19.968 0-4.608 5.12-4.608 14.336 0 19.968z m-228.864-229.376c5.632 5.632 14.336 5.632 19.968 0s5.632-14.848 0-19.968-14.336-5.12-19.968 0c-4.608 5.12-3.584 13.824 0 19.968zM953.28256 44.943359999999984h-14.336v510.976c0 13.312-10.752 24.064-24.064 24.064h-114.688c-13.312 0-24.064-10.752-24.064-24.064v-510.976h-66.56v243.712c0 13.312-10.752 24.064-24.064 24.064h-114.688c-13.312 0-24.064-10.752-24.064-24.064v-243.712h-66.048v357.888c0 13.312-10.752 24.064-24.064 24.064h-114.688c-13.312 0-24.064-10.752-24.064-24.064v-357.888h-66.56v129.024c0 13.312-10.752 24.064-24.064 24.064h-114.688c-13.312 0-24.064-10.752-24.064-24.064v-129.024h-14.336c-13.312 0-24.064-10.752-24.064-24.064s10.752-24.064 24.064-24.064h878.592c13.312 0 24.064 10.752 24.064 24.064 0.512 13.312-10.24 24.064-23.552 24.064z m-816.64 0v104.96h66.56v-104.96h-66.56z m229.376 0v334.336h66.56v-334.336h-66.56z m229.376 0v219.648h66.56v-219.648h-66.56z m229.376 0v486.912h66.56v-486.912h-66.56z"  horiz-adv-x="1024" />

    
    <glyph glyph-name="weibiaoti-" unicode="&#58883;" d="M1002.55232 442.5984L572.54912 872.6016A77.4656 77.4656 0 0 1 517.55008 895.40096c-20.79744 0-40.19712-8.00256-54.99904-22.79936L32.55296 442.5984c-30.19776-30.40256-30.19776-79.60064 0-109.99808l10.79808-10.5984 104.80128-32.59904v-309.00224c0-59.8016 48.59904-108.40064 108.40064-108.40064h205.59872v203.40224a14.25408 14.25408 0 0 0 14.19776 14.19776h90.99776a14.25408 14.25408 0 0 0 14.19776-14.19776V-128h191.20128c59.8016 0 108.40064 48.59904 108.40064 108.40064v308.59776l110.40256 32.79872 10.79808 10.79808c14.80192 14.60224 22.79936 34.2016 22.79936 54.99904 0.2048 20.80768-7.79776 40.20736-22.59456 55.00416z m-229.60128-507.19744h-127.80032v139.8016c0 42.79808-34.80064 77.7984-77.7984 77.7984H476.35456c-42.79808 0-77.7984-34.80064-77.7984-77.7984v-139.8016H256.35328c-24.80128 0-44.99968 20.1984-44.99968 44.8v355.79904l-134.20032 41.79968a14.31552 14.31552 0 0 0 0.39936 19.79904L507.55072 827.5968a14.2336 14.2336 0 0 0 9.99936 4.1984c3.79904 0 7.3984-1.39776 9.99936-4.1984l429.99808-429.99808a14.2336 14.2336 0 0 0 4.1984-9.99936c0-3.59936-1.19808-6.99904-3.79904-9.6l-140.40064-41.6v-355.99872c0.2048-24.80128-19.99872-44.99968-44.5952-44.99968zM517.5296 432.64m-194.56 0a194.56 194.56 0 1 1 389.12 0 194.56 194.56 0 1 1-389.12 0Z"  horiz-adv-x="1025" />

    
    <glyph glyph-name="shezhi" unicode="&#58884;" d="M495.616 404.48m-165.376 0a165.376 165.376 0 1 1 330.752 0 165.376 165.376 0 1 1-330.752 0ZM491.52 196.60799999999995c-114.688 0-207.872 93.184-207.872 207.872 0 114.688 93.184 207.872 207.872 207.872 55.296 0 107.52-21.504 146.944-60.928s60.928-91.648 60.928-146.944c0-114.688-93.184-207.872-207.872-207.872z m0 369.664c-89.088 0-161.792-72.704-161.792-161.792s72.704-161.792 161.792-161.792 161.792 72.704 161.792 161.792S580.608 566.2719999999999 491.52 566.2719999999999zM543.232 11.26400000000001H436.736c-38.4 0-69.632 31.232-69.632 69.632v23.552c-27.648 11.264-53.76 26.624-77.312 45.568l-21.504-12.288c-33.28-18.432-75.776-6.656-94.208 26.624l-53.248 94.72c-18.432 33.28-7.168 75.264 26.112 94.208l22.016 12.8c-1.536 12.288-3.072 25.088-3.072 38.4 0 13.312 1.536 26.624 3.072 38.4L146.432 455.68c-32.768 18.944-44.544 60.928-26.112 94.208l53.248 94.72c18.944 33.28 60.928 45.056 94.208 26.624l21.504-12.288c23.552 18.944 49.664 33.792 77.312 45.568v23.552c0 38.4 31.232 69.632 69.632 69.632H542.72c38.4 0 69.632-31.232 69.632-69.632v-23.552c27.648-11.264 53.76-26.624 77.312-45.568l21.504 12.288c33.28 18.432 75.776 6.656 94.208-26.624l53.248-94.72c18.432-33.28 7.168-75.264-26.112-94.208l-22.016-12.8c1.536-11.776 3.072-25.088 3.072-38.4 0-13.312-1.536-26.112-3.072-38.4l22.016-12.8c32.768-18.944 44.544-60.928 26.112-94.208l-53.248-94.72c-12.8-22.528-36.352-35.328-60.416-35.328-11.264 0-23.04 3.072-33.792 8.704l-21.504 12.288c-23.552-18.944-49.664-33.792-77.312-45.568v-23.552c0-38.4-31.232-69.632-69.12-69.632zM291.84 200.192c6.656 0 12.8-2.048 17.92-6.656 25.6-22.016 54.272-38.912 85.504-50.176 10.752-4.096 17.92-14.336 17.92-25.6v-36.352c0-12.8 10.24-23.04 23.04-23.04H542.72c12.8 0 23.04 10.24 23.04 23.04V117.75999999999999c0 11.264 7.168 22.016 17.92 25.6 31.232 11.776 60.416 28.672 85.504 50.176 8.704 7.68 21.504 8.704 31.232 3.072l32.768-18.432c11.264-6.144 25.088-2.048 31.232 8.704l53.248 94.72c6.144 11.264 2.56 25.088-8.704 31.232l-33.28 18.944c-9.728 5.632-15.36 16.896-13.312 28.16 2.56 13.824 4.608 28.672 4.608 43.52 0 15.36-2.048 30.208-4.608 44.032-2.048 11.264 3.584 22.528 13.312 28.16l33.28 18.944c10.752 6.144 14.848 20.48 8.704 31.232l-53.248 94.72c-6.144 11.264-20.48 14.848-31.232 8.704l-32.768-18.432c-10.24-5.632-22.528-4.096-31.232 3.072-25.6 22.016-54.272 38.912-85.504 50.176-10.752 4.096-17.92 14.336-17.92 25.6v36.352c0 12.8-10.24 23.04-23.04 23.04H436.736c-12.8 0-23.04-10.24-23.04-23.04v-36.352c0-11.264-7.168-22.016-17.92-25.6-31.232-11.776-60.416-28.672-85.504-50.176-8.704-7.68-21.504-8.704-31.232-3.072L245.76 630.784c-11.264 6.144-25.088 2.048-31.232-8.704L160.768 527.36c-6.144-11.264-2.56-25.088 8.704-31.232l33.28-18.944c9.728-5.632 15.36-16.896 13.312-28.16-2.56-13.824-4.608-28.672-4.608-44.032 0-14.848 2.048-29.696 4.608-43.52 2.048-11.264-3.584-22.528-13.312-28.16l-33.792-18.944c-10.752-6.144-14.848-20.48-8.704-31.232l53.248-94.72c6.144-11.264 20.48-14.848 31.232-8.704l32.768 18.432c5.12 1.024 9.728 2.048 14.336 2.048z m308.224-100.352z"  horiz-adv-x="1024" />

    
    <glyph glyph-name="jigou" unicode="&#58885;" d="M916.992 27.135999999999967h-39.424V497.664c0 38.4-31.232 69.632-69.632 69.632h-182.272V759.296c0 39.936-32.256 72.192-72.192 72.192H217.6c-39.936 0-72.192-32.256-72.192-72.192v-732.16h-33.28c-16.384 0-29.696-13.312-29.696-29.696s13.312-29.696 29.696-29.696h803.84c16.384 0 29.696 13.312 29.696 29.696s-12.8 29.696-28.672 29.696z m-351.744 0H205.312V747.008c0 13.312 10.752 24.064 24.064 24.064h311.808c13.312 0 24.064-10.752 24.064-24.064v-719.872z m251.904 0h-192V506.88h164.352c15.36 0 27.648-12.288 27.648-27.648v-452.096zM489.984 99.84000000000003H278.016c-25.088 0-45.568 20.48-45.568 45.568V676.864c0 25.088 20.48 45.568 45.568 45.568h211.456c25.088 0 45.568-20.48 45.568-45.568v-531.456c0.512-25.088-19.968-45.568-45.056-45.568zM778.752 47.615999999999985h-114.688c-12.8 0-22.528 10.24-22.528 22.528V463.872c0 12.8 10.24 22.528 22.528 22.528h114.688c12.8 0 22.528-10.24 22.528-22.528v-393.728c0.512-12.288-9.728-22.528-22.528-22.528zM766.976 363.00800000000004H675.84c-14.336 0-26.624-11.776-26.624-26.624 0-14.336 11.776-26.624 26.624-26.624h91.136c14.336 0 26.624 11.776 26.624 26.624 0 14.848-11.776 26.624-26.624 26.624z m2.56-139.264h-96.256c-13.312 0-24.064-10.752-24.064-24.064v-4.608c0-13.312 10.752-24.064 24.064-24.064h96.256c13.312 0 24.064 10.752 24.064 24.064v4.608c0 13.312-10.752 24.064-24.064 24.064z m-271.36 105.984H425.984c-13.312 0-24.064-10.752-24.064-24.064v-4.608c0-13.312 10.752-24.064 24.064-24.064h72.192c13.312 0 24.064 10.752 24.064 24.064v4.608c0 13.312-10.752 24.064-24.064 24.064z m-156.16 0h-71.68c-13.312 0-24.064-10.752-24.064-24.064v-4.608c0-13.312 10.752-24.064 24.064-24.064h72.192c13.312 0 24.064 10.752 24.064 24.064v4.608c-0.512 13.312-11.264 24.064-24.576 24.064zM499.712 476.16H427.52c-13.312 0-24.064-10.752-24.064-24.064v-4.608c0-13.312 10.752-24.064 24.064-24.064h72.192c13.312 0 24.064 10.752 24.064 24.064v4.608c0 13.312-10.752 24.064-24.064 24.064z m-156.16 0h-71.68c-13.312 0-24.064-10.752-24.064-24.064v-4.608c0-13.312 10.752-24.064 24.064-24.064h72.192c13.312 0 24.064 10.752 24.064 24.064v4.608c-0.512 13.312-11.776 24.064-24.576 24.064z m156.16 145.92H427.52c-13.312 0-24.064-10.752-24.064-24.064v-4.608c0-13.312 10.752-24.064 24.064-24.064h72.192c13.312 0 24.064 10.752 24.064 24.064v4.608c0 13.824-10.752 24.064-24.064 24.064z m-156.16 0h-71.68c-13.312 0-24.064-10.752-24.064-24.064v-4.608c0-13.312 10.752-24.064 24.064-24.064h72.192c13.312 0 24.064 10.752 24.064 24.064v4.608c-0.512 13.824-11.776 24.064-24.576 24.064z"  horiz-adv-x="1024" />

    
    <glyph glyph-name="zhibiao" unicode="&#58886;" d="M125.952-61.952c-30.208 0-54.272 24.064-54.272 54.272v198.144c0 30.208 24.064 54.272 54.272 54.272 30.208 0 54.272-24.064 54.272-54.272v-198.144c0-30.208-24.064-54.272-54.272-54.272zM384-61.952c-30.208 0-54.272 24.064-54.272 54.272V414.208c0 30.208 24.064 54.272 54.272 54.272 30.208 0 54.272-24.064 54.272-54.272v-421.888c0-30.208-24.064-54.272-54.272-54.272zM907.264 760.832c-5.12 2.048-10.24 3.072-15.872 2.048H768c-17.92 0-32.256-14.336-32.256-32.256s14.336-32.256 32.256-32.256h47.616L639.488 522.24 408.576 753.664c-6.656 6.656-15.872 10.24-25.088 9.728-9.216 0.512-17.92-3.072-24.576-9.728L104.96 500.224c-12.288-13.312-11.776-34.304 2.048-47.104 12.8-11.776 32.256-11.776 45.056 0l231.424 231.424L614.4 453.12c6.656-6.656 15.872-9.728 25.088-9.728 9.216-0.512 18.432 3.072 25.088 9.728l199.168 199.68v-49.664c0-17.92 14.336-32.256 32.256-32.256s32.256 14.336 32.256 32.256v128c-0.512 13.312-8.704 25.088-20.992 29.696zM128 219.13599999999997c-17.92 0-32.256-14.336-32.256-32.256V-5.1200000000000045c0-17.92 14.336-32.256 32.256-32.256s32.256 14.336 32.256 32.256v192c-0.512 17.92-14.336 32.256-32.256 32.256z m256 223.744c-17.92 0-32.256-14.336-32.256-32.256V-5.1200000000000045c0-17.92 14.336-32.256 32.256-32.256s32.256 14.336 32.256 32.256V411.136c-0.512 17.408-14.336 31.744-32.256 31.744z m519.68-187.392h-2.048c-32.256 0-58.368 27.648-58.368 61.44 0 11.264 5.12 23.552 5.12 23.552 5.12 11.776 1.536 25.6-8.704 33.792l-0.512 0.512-55.808 32.768-0.512 0.512c-10.752 4.608-23.552 2.048-31.744-6.656-6.656-7.68-28.672-27.136-46.08-27.136-17.408 0-39.424 19.968-46.08 27.136-5.632 5.632-13.312 9.216-20.992 9.216-3.584 0-7.168-0.512-10.752-2.048l-0.512-0.512-57.856-33.792-0.512-0.512c-10.24-8.192-13.824-21.504-9.216-33.792 0 0 5.12-12.288 5.12-23.552 0-33.792-26.112-61.44-58.368-61.44h-2.048c-9.216 0-16.896-8.704-19.456-22.016 0-1.024-4.608-26.624-4.608-46.592s4.608-45.568 4.608-46.592c2.56-13.312 9.728-22.016 18.944-22.016h2.048c32.256 0 58.368-27.648 58.368-61.952 0-11.264-5.12-23.552-5.12-23.552-5.12-11.776-1.536-25.6 8.704-33.792l0.512-0.512 54.784-32.768 0.512-0.512c11.264-4.608 23.552-1.536 31.744 7.168 6.656 7.168 28.672 28.672 46.592 28.672s39.936-20.992 47.104-29.184c7.68-9.216 20.48-11.776 31.744-7.168h0.512l56.832 33.28 0.512 0.512c10.24 8.192 13.824 21.504 8.704 33.792 0 0-5.12 12.288-5.12 23.552 0 34.304 26.112 61.952 58.368 61.952h2.048c9.216 0 16.896 8.704 19.456 22.016 0 1.024 4.608 26.624 4.608 46.592s-4.608 45.568-4.608 46.592c-0.512 14.336-8.192 23.04-17.92 23.04z m-42.496-101.888c-36.352-2.048-65.024-33.792-65.024-73.216 0-12.8 4.608-25.6 5.632-28.16l-43.008-25.6c-0.512 0-1.024 0-1.536 0.512-5.12 5.632-10.24 10.752-15.872 14.848-13.312 10.752-26.112 15.872-37.888 15.872-11.776 0-24.576-5.632-37.888-15.872-9.216-7.168-15.36-13.824-15.872-14.848-0.512 0-1.024-0.512-1.536-0.512l-41.472 24.576c1.024 2.56 5.632 15.36 5.632 28.16 0 38.912-28.672 71.168-65.024 73.216-2.048 10.752-3.072 22.016-3.584 33.28 0 12.8 2.56 30.208 3.584 33.28 36.352 2.048 65.024 33.792 65.024 73.216 0 12.8-4.608 25.088-5.632 28.16l44.032 25.6c1.024 0 1.536 0 1.536-0.512 1.024-1.024 7.168-7.68 15.872-14.336 13.312-10.24 25.6-15.36 36.864-15.36s23.552 5.12 36.864 14.848c8.704 6.656 14.848 13.312 15.872 13.824 0.512 0 1.024 0.512 1.536 0.512l42.496-25.088c-1.024-2.56-5.632-14.848-5.632-28.16 0-38.912 28.672-71.168 65.024-73.216 0.512-3.072 3.584-20.48 3.584-33.28-0.512-11.264-3.072-28.672-3.584-31.744z m-157.184 97.792c-35.328-0.512-63.488-29.184-63.488-64.512 0-35.84 28.16-64.512 63.488-64.512 34.816 0 62.976 28.672 62.976 64.512 0.512 35.328-27.648 64-62.976 64.512z"  horiz-adv-x="1024" />

    
    <glyph glyph-name="kaohe" unicode="&#58887;" d="M815.104-22.52800000000002H224.256c-66.56 0-120.32 54.272-120.32 120.32v583.68c0 66.56 54.272 120.32 120.32 120.32h590.848c66.56 0 120.32-54.272 120.32-120.32v-583.68c0.512-66.048-53.76-120.32-120.32-120.32zM224.256 738.304c-31.232 0-56.32-25.6-56.32-56.32v-583.68c0-31.232 25.6-56.32 56.32-56.32h590.848c31.232 0 56.32 25.6 56.32 56.32v583.68c0 31.232-25.6 56.32-56.32 56.32H224.256zM779.776 79.87199999999996H266.752c-28.672 0-52.224 23.552-52.224 52.224V645.12c0 28.672 23.552 52.224 52.224 52.224h513.024c28.672 0 52.224-23.552 52.224-52.224v-513.024c0.512-29.184-23.04-52.224-52.224-52.224zM282.624 420.864c5.12 0 10.24 1.536 14.336 4.608l124.928 89.6 46.08-73.728c2.048-3.072 4.608-6.144 7.68-7.68 0-5.632 1.536-11.264 5.12-15.872 5.12-6.144 12.288-9.728 19.456-9.728 5.632 0 11.264 2.048 15.36 5.632l164.864 130.56 6.656-67.072c1.024-12.8 12.288-22.528 25.088-22.528h2.56c13.824 1.536 23.552 13.824 22.528 27.136l-11.776 119.808c-1.024 11.264-9.216 19.456-19.456 22.016-3.584 3.072-7.68 5.12-12.8 5.632l-119.808 15.36c-13.824 1.536-26.112-8.192-28.16-21.504-1.536-13.824 8.192-26.112 21.504-28.16l83.968-10.752-142.336-112.64-56.32 89.6c-0.512 1.536-1.536 3.584-2.56 5.12-8.192 11.264-23.552 13.824-34.816 5.632L267.776 466.432c-11.264-8.192-13.824-23.552-5.632-34.816 5.12-7.168 12.8-10.752 20.48-10.752zM699.904 304.12800000000004H284.16c-17.92 0-32.256-14.336-32.256-32.256s14.336-32.256 32.256-32.256h415.232c17.92 0 32.256 14.336 32.256 32.256s-14.336 32.256-31.744 32.256zM539.136 169.98400000000004H288.768c-17.92 0-32.256-14.336-32.256-32.256s14.336-32.256 32.256-32.256h250.368c17.92 0 32.256 14.336 32.256 32.256s-14.336 32.256-32.256 32.256z"  horiz-adv-x="1024" />

    
    <glyph glyph-name="chuangxinchuangyou" unicode="&#58888;" d="M344.064-27.135999999999967H184.32c-52.736 0-96.256 43.008-96.256 96.256V484.864c0 52.736 43.008 95.744 96.256 95.744h160.256c17.408 0 32.256-14.336 32.256-31.744v-384c0-17.408-14.336-32.256-32.256-32.256s-32.256 14.336-32.256 32.256V517.12H184.32c-17.408 0-32.256-14.336-32.256-32.256v-416.256c0-17.408 14.336-32.256 32.256-32.256h160.256c17.408 0 32.256-14.336 32.256-32.256s-14.848-31.232-32.768-31.232z m6.656 540.672c-4.608 0-11.264 1.536-15.872 4.608-15.872 9.728-20.992 28.672-11.264 43.008l136.192 235.008c14.336 25.6 38.4 45.056 68.608 52.736 27.136 6.656 57.344 3.072 83.456-12.8 25.6-14.336 44.544-38.4 52.736-68.608 8.192-28.672 3.072-59.392-11.264-84.992l-88.064-150.528c-9.728-15.872-28.672-20.992-43.008-11.264-15.872 9.728-20.992 28.672-11.264 43.008L598.528 716.8c6.656 11.264 8.192 24.064 4.608 36.864-3.072 12.8-11.264 22.528-22.528 28.672-22.528 12.8-52.736 4.608-65.536-17.408L379.392 529.9200000000001c-8.192-11.264-17.408-16.384-28.672-16.384z m479.744-540.672h-486.4c-17.408 0-32.256 14.336-32.256 32.256s14.336 32.256 32.256 32.256h486.4c15.872 0 30.208 12.8 32.256 28.672l49.664 415.744c1.536 9.728-1.536 17.408-8.192 25.6s-14.336 9.728-24.064 9.728h-344.064c-17.408 0-32.256 14.336-32.256 32.256s14.336 31.744 32.256 31.744h344.064c27.136 0 52.736-11.264 72.192-31.744 17.408-20.992 27.136-48.128 24.064-75.264l-49.664-415.744c-6.656-48.64-46.592-85.504-96.256-85.504zM784.896 82.94399999999996H446.464c-24.064 0-43.008 19.456-43.008 43.008v302.08c0 24.064 19.456 43.008 43.008 43.008h376.832c24.064 0 43.008-19.456 43.008-43.008l-38.4-302.08c0.512-24.064-18.944-43.008-43.008-43.008z"  horiz-adv-x="1024" />

    
    <glyph glyph-name="gaijinsvg" unicode="&#58889;" d="M722.944 66.55999999999995H263.68c-22.016 0-39.424 17.408-39.424 39.424V627.712c0 22.016 17.408 39.424 39.424 39.424h459.264c22.016 0 39.424-17.408 39.424-39.424v-521.728c0-22.016-17.408-39.424-39.424-39.424zM791.552-49.152000000000044H214.528c-53.248 0-96.256 43.008-96.256 96.256V688.64c0 53.248 43.008 96.256 96.256 96.256h449.024c17.92 0 32.256-14.336 32.256-32.256s-14.336-32.256-32.256-32.256H214.528c-17.92 0-32.256-14.336-32.256-32.256v-641.536c0-17.92 14.336-32.256 32.256-32.256h577.536c17.92 0 32.256 14.336 32.256 32.256V559.616c0 17.92 14.336 32.256 32.256 32.256s32.256-14.336 32.256-32.256v-513.024c-1.024-52.736-44.032-95.744-97.28-95.744zM603.136 463.872c-8.192 0-16.384 3.072-22.528 9.216a32.768 32.768 0 0 0 0 45.568l318.976 318.976c12.288 12.288 32.768 12.288 45.568 0s12.288-32.768 0-45.568l-318.464-318.976c-7.168-6.144-15.36-9.216-23.552-9.216z m-132.096 0H278.528c-17.92 0-32.256 14.336-32.256 32.256s14.336 32.256 32.256 32.256H471.04c17.92 0 32.256-14.336 32.256-32.256s-14.848-32.256-32.256-32.256z m192.512-192H278.528c-17.92 0-32.256 14.336-32.256 32.256s14.336 32.256 32.256 32.256h385.024c17.92 0 32.256-14.336 32.256-32.256-0.512-17.92-14.848-32.256-32.256-32.256z"  horiz-adv-x="1024" />

    
    <glyph glyph-name="pingjia" unicode="&#58890;" d="M311.296 347.648a186.368 136.704 0 1 1 372.736 0 186.368 136.704 0 1 1-372.736 0ZM718.848-62.464000000000055c-12.8 0-25.6 3.584-36.864 9.728l-177.664 97.792c-4.096 2.56-9.216 2.56-13.824 0l-177.664-97.792c-32.256-17.92-72.704-10.24-96.256 18.432-15.36 18.432-22.016 43.008-17.92 66.56l33.792 206.848c1.024 6.144-1.024 11.776-5.12 16.384L83.456 401.92c-21.504 22.016-28.672 54.272-18.944 83.456 9.216 28.16 33.28 49.152 62.464 53.76l198.656 30.208c5.12 1.024 9.216 4.608 11.776 9.216l89.6 187.904c17.92 39.424 64 56.32 103.424 38.912 17.408-7.68 30.72-21.504 38.912-38.912L657.92 578.56c2.048-4.608 6.656-8.192 11.776-9.216l198.656-30.208c29.696-4.608 53.76-25.6 62.464-53.76 9.728-29.184 2.56-61.44-18.944-83.456L768 254.976c-4.096-4.608-6.144-10.752-5.12-16.384l33.792-207.36c8.192-43.008-19.968-84.48-62.976-92.672-4.608-0.512-9.728-1.024-14.848-1.024z m-221.696 172.032c12.8 0 25.6-3.584 36.864-9.728l177.664-97.792c2.048-1.536 4.608-2.048 6.656-2.048 4.608 0 8.704 2.048 11.264 5.632 3.584 4.096 5.12 9.728 4.096 14.848l-33.792 206.848c-4.608 26.112 4.096 52.224 22.528 71.168L866.816 445.44c4.608 5.12 6.656 12.8 4.608 19.456-1.536 5.632-6.656 10.24-12.8 11.264l-199.168 30.72c-26.112 4.096-48.128 20.992-59.392 44.544L511.488 739.84c-2.048 5.632-7.68 9.216-13.824 9.216-6.144 0-11.264-3.584-13.824-9.216L394.752 551.9359999999999c-10.752-24.064-33.28-40.96-59.392-44.544l-198.656-30.208c-6.144-1.024-10.752-5.632-12.8-11.264-2.56-6.656-1.024-14.336 4.608-19.456l143.872-146.944c17.92-18.944 26.624-45.056 22.528-71.168L261.12 21.50400000000002c-1.024-5.632 0.512-11.264 4.096-15.36 2.56-3.584 6.656-5.632 11.264-5.632 2.56 0 4.608 0.512 6.656 2.048l177.664 97.28c11.264 6.144 23.552 9.728 36.352 9.728z"  horiz-adv-x="1024" />

    
    <glyph glyph-name="pingjia1" unicode="&#58891;" d="M376.832 432.128a170.496 124.92800000000001 0 1 1 340.992 0 170.496 124.92800000000001 0 1 1-340.992 0ZM800.96768 325.49888c62.976 139.776 36.864 328.192 35.328 336.384-5.12 26.624-29.184 45.568-56.32 44.032-35.328-4.096-69.12-16.384-98.816-35.84-18.944 42.496-45.568 81.408-78.848 114.176-18.944 17.408-43.008 27.136-68.608 28.16-1.536 0-2.56-0.512-4.096-0.512-1.024 0.512-2.56 0.512-3.584 0.512-25.6-0.512-50.176-10.752-68.608-28.16-33.28-32.768-59.904-71.68-78.848-114.176-29.696 19.456-63.488 31.744-98.816 35.84-27.136 1.024-51.2-17.408-56.32-44.032-1.024-8.192-27.648-196.608 35.328-336.384 2.048-5.632 56.832-135.168 243.712-147.456v-177.152c0-14.848 12.288-27.136 27.136-27.136s27.136 12.288 27.136 27.136v177.152c187.392 12.8 242.176 141.312 244.224 147.456z m-491.52 20.992c-56.832 125.952-32.256 305.152-29.184 305.152 23.552 0 71.168-26.624 97.792-45.568l33.28-23.552 8.704 39.424c13.824 46.08 39.424 87.552 73.216 121.856 8.704 8.704 20.48 13.824 32.768 14.848 1.536 0 2.56 0 4.096-0.512v0.512c1.024 0 2.56-0.512 3.584-0.512 12.288-0.512 24.064-5.632 32.768-14.336 34.304-33.792 59.392-75.776 73.216-121.856l8.704-39.424 33.28 23.552c26.624 18.944 74.752 45.568 97.792 45.568 3.072 0 27.648-179.2-29.184-305.152-2.048-5.632-50.176-114.688-221.184-115.712-169.472 1.024-217.088 110.08-219.648 115.712zM245.95968 221.05088c-52.736 3.072-100.864-20.992-142.336-71.68-9.216-11.776-6.656-28.672 5.12-37.888 11.264-8.704 27.648-7.168 36.864 3.584 30.208 37.376 62.464 54.784 96.768 52.224 76.8-5.12 155.648-105.472 179.2-143.872 8.192-12.288 25.088-15.872 37.376-7.68 12.288 7.68 15.872 24.064 8.704 36.352-4.096 6.144-101.376 160.768-221.696 168.96zM956.10368 149.37088000000006c-41.472 51.2-89.088 75.264-142.336 71.68-120.32-7.68-217.6-162.816-221.696-169.472-7.68-12.8-3.072-29.696 9.728-36.864 12.288-7.168 28.672-3.584 36.352 8.704 23.552 38.4 101.888 138.752 179.2 143.872 34.304 2.56 66.56-14.848 96.768-52.224 9.728-11.264 26.624-12.8 38.4-3.072 10.752 9.728 12.288 26.112 3.584 37.376z"  horiz-adv-x="1024" />

    
    <glyph glyph-name="tongji" unicode="&#58892;" d="M287.744 539.136h421.376c27.136 0 49.664-22.016 49.664-49.664v-148.992c0-27.136-22.016-49.664-49.664-49.664H287.744c-27.136 0-49.664 22.016-49.664 49.664V489.984c0 27.136 22.016 49.152 49.664 49.152zM858.112 695.296c-1.024 0-2.048 1.024-2.048 1.024v-54.784c0 0.512 0.512 1.024 2.048 1.024H143.872c1.024 0 2.048-1.024 2.048-1.024V696.3199999999999c0-0.512-0.512-1.024-2.048-1.024h714.24zM89.088 696.3199999999999v-54.784c-0.512-30.208 24.064-55.296 54.784-55.808h714.24c30.72 0 54.784 25.088 54.784 55.296V696.3199999999999c0.512 30.208-24.064 55.296-54.784 55.808H143.872c-30.208 0-54.784-25.088-54.784-55.808z m702.976-110.08c-1.536 0-2.048 0.512-2.048 1.024v-327.168c0 0.512 0.512 1.024 2.048 1.024H209.92c1.536 0 2.048-0.512 2.048-1.024v327.68c0-0.512-0.512-1.024-2.048-1.024h582.144z m-636.928 1.536v-327.168c0-30.72 24.576-55.296 54.784-55.296h581.632c30.72 0 55.296 25.088 54.784 55.296V587.7760000000001c0 30.72-24.576 55.296-54.784 55.296H209.92c-30.208 0-54.784-25.088-54.784-55.296zM384 204.79999999999995h277.504c5.632-1.024 10.752-4.096 14.336-8.704l106.496-198.144c7.68-13.824 24.576-18.944 38.4-11.776 13.824 7.68 18.944 24.576 11.776 38.4l-106.496 187.904-407.04 14.336s37.376-45.568 46.592-32.768c4.608 6.144 11.264 9.728 18.432 10.752z m-18.944-10.24c9.216 12.8-46.592 18.432-46.592 18.432l-140.8-186.88c-9.216-12.8-5.632-30.72 7.168-39.424 12.8-9.216 30.72-5.632 39.424 7.168L365.056 194.55999999999995z m216.064 169.472l114.176 105.472c11.776 10.752 12.288 28.672 1.536 39.936s-28.672 12.288-39.936 1.536L542.72 405.504c-3.072-2.048-7.168-2.56-10.752-1.536-13.824 7.168-31.232 2.048-38.4-11.776-7.168-13.824-2.048-31.232 11.776-38.4 25.088-12.288 54.784-8.192 75.776 10.24z m-163.328 28.16c3.584 2.048 7.68 2.56 11.264 1.536l76.288-39.936c13.824-7.168 31.232-2.048 38.4 11.776 7.168 13.824 2.048 31.232-11.776 38.4L455.68 443.904c-25.088 12.288-54.784 8.192-75.776-9.728l-99.328-89.088c-11.776-10.24-12.8-28.16-2.048-39.936s28.16-12.8 39.936-2.048l99.328 89.088z"  horiz-adv-x="1024" />

    
    <glyph glyph-name="tongxunlu" unicode="&#58893;" d="M524.8 468.48m-82.432 0a82.432 82.432 0 1 1 164.864 0 82.432 82.432 0 1 1-164.864 0ZM778.14784-28.610559999999964h-536.576c-37.888 0-69.12 30.72-69.12 69.12v111.616c0 15.872 12.8 28.672 28.672 28.672 15.872 0 28.672-12.8 28.672-28.672v-111.616c0-6.656 5.12-11.776 11.776-11.776h536.064c6.656 0 11.776 5.12 11.776 11.776v651.776c0 6.656-5.12 11.776-11.776 11.776h-536.064c-6.656 0-11.776-5.12-11.776-11.776v-104.96c0-15.872-12.8-28.672-28.672-28.672s-28.672 12.8-28.672 28.672v104.96c0 37.888 30.72 69.12 69.12 69.12h536.064c37.888 0 69.12-30.72 69.12-69.12v-652.288c0-37.888-30.72-68.608-68.608-68.608zM523.17184 328.25343999999996c-69.12 0-129.536 67.584-129.536 144.896 1.536 71.68 60.416 128.512 132.096 127.488 69.632-1.536 125.952-57.344 127.488-127.488-0.512-76.8-60.928-144.896-130.048-144.896z m0 215.04c-37.376 2.56-69.632-26.112-72.192-63.488v-6.144c0-46.08 34.304-87.552 72.192-87.552s72.192 41.984 72.192 87.552c1.024 37.376-28.672 68.608-66.048 69.632h-6.144zM711.58784 139.83744000000002c-15.872 0-28.672 12.8-28.672 28.672 0 98.304-26.624 159.744-159.744 159.744s-159.744-60.928-159.744-159.744c0-15.872-12.8-28.672-28.672-28.672s-28.672 12.8-28.672 28.672c0 93.184 22.528 217.088 217.088 217.088s217.088-123.904 217.088-217.088c0-15.872-12.8-28.672-28.672-28.672z m-465.92 331.776h-93.696c-15.872 0-28.672 12.8-28.672 28.672 0 15.872 12.8 28.672 28.672 28.672h93.696c15.872 0 28.672-12.8 28.672-28.672 0-15.872-12.8-28.672-28.672-28.672z m0-134.144h-93.696c-15.872 0-28.672 12.8-28.672 28.672s12.8 28.672 28.672 28.672h93.696c15.872 0 28.672-12.8 28.672-28.672s-12.8-28.672-28.672-28.672z m0-131.072h-93.696c-15.872 0-28.672 12.8-28.672 28.672 0 15.872 12.8 28.672 28.672 28.672h93.696c15.872 0 28.672-12.8 28.672-28.672 0-15.36-12.8-28.672-28.672-28.672z"  horiz-adv-x="1024" />

    
    <glyph glyph-name="tongzhitonggao" unicode="&#58894;" d="M412.16 201.216c-27.136 0-49.152 22.016-49.152 49.152v73.216c0 4.608 0.512 9.216 2.048 13.824-1.536 7.68-2.048 15.36-2.048 23.04V531.456c0 74.24 60.416 134.656 134.656 134.656h24.576c74.24 0 134.656-60.416 134.656-134.656v-171.008c0-7.68-0.512-15.36-2.048-23.04 1.536-4.608 2.048-9.216 2.048-13.824v-73.216c0-27.136-22.016-49.152-49.152-49.152H412.16zM837.632 114.68799999999999l-43.008 121.856V551.9359999999999c0 160.768-130.56 291.328-291.328 291.328s-291.84-130.56-291.84-291.328v-315.392l-44.032-121.856c-6.144-17.408 2.56-36.864 20.48-43.52 3.584-1.536 7.68-2.048 11.264-2.048h606.208c18.432 0 33.792 15.36 33.792 33.792 0 4.096-0.512 7.68-1.536 11.776z m-590.336 22.528l29.696 81.92c1.536 3.584 2.048 7.68 2.048 11.776V551.9359999999999c0 123.392 100.352 223.744 223.744 223.744s223.744-100.352 223.744-223.744V230.39999999999998c0-4.096 0.512-7.68 2.048-11.264l29.184-81.92H247.296z m132.608-108.032c0-67.584 54.784-122.368 122.368-122.368s122.368 54.784 122.368 122.368v4.096H379.904v-4.096z"  horiz-adv-x="1024" />

    
    <glyph glyph-name="rizhi" unicode="&#58895;" d="M291.328 518.656h391.68c33.28 0 60.416-27.136 60.416-60.416v-361.472c0-33.28-27.136-60.416-60.416-60.416H291.328c-33.28 0-60.416 27.136-60.416 60.416V458.24c0.512 33.28 27.136 60.416 60.416 60.416zM869.888 647.168l-154.112 150.528c-12.8 12.8-29.696 19.456-47.616 19.456H178.688c-52.736-0.512-94.72-43.008-94.72-95.744v-683.008c0-52.736 42.496-95.232 94.72-95.232h616.448c52.736 0 95.232 43.008 95.232 95.232V598.0160000000001c0 18.432-7.168 35.84-20.48 49.152z m-46.592-608.768c0-15.36-12.8-28.16-28.16-28.16H178.688c-15.36 0-27.648 12.8-27.648 28.16V721.92c0 15.36 12.288 28.16 27.648 28.16l442.88-0.512v-118.784c0-55.808 45.056-100.864 100.352-100.864h100.864l0.512-491.52z m0 558.08h-100.864c-18.432 0-33.28 14.336-33.792 32.768V730.112l134.656-131.584v-2.048zM655.36 416.256H318.976c-18.432 0-33.792-14.848-33.792-33.792s14.848-33.792 33.792-33.792H655.36c18.432 0 33.792 14.848 33.792 33.792s-15.36 33.792-33.792 33.792z m0-202.24H318.976c-18.432 0-33.792-14.848-33.792-33.28s14.848-33.792 33.28-33.792h336.384c18.432 0 33.792 14.848 33.792 33.28 0 18.944-14.848 33.792-33.28 33.792z"  horiz-adv-x="1024" />

    
    <glyph glyph-name="menhuguanli" unicode="&#58896;" d="M221.696 684.544h548.352c35.84 0 64.512-28.672 64.512-64.512v-322.56c0-35.84-28.672-64.512-64.512-64.512H221.696c-35.84 0-64.512 28.672-64.512 64.512V619.52c0 35.84 29.184 65.024 64.512 65.024zM879.616 782.336H124.416c-35.328 0-64-28.672-64-64v-517.12c0-35.328 28.672-64 64-64h345.6v-139.264H161.792c-17.408 0-32.256-13.824-32.768-31.232-0.512-17.408 13.312-32.256 31.232-32.768h681.984c17.408 0 32.256 13.824 32.768 31.232 0.512 17.408-13.312 32.256-31.232 32.768h-309.76v139.264h345.6c35.328 0 64 28.672 64 64v517.12c-0.512 35.328-29.184 64-64 64z m0-580.608H124.416V718.336h755.2v-516.608zM257.024 642.048h-33.792c-11.776 0-20.992-9.728-21.504-21.504v-33.792c0-11.776 9.728-20.992 21.504-21.504h33.792c11.776 0 20.992 9.728 21.504 21.504v33.792c0 11.776-9.728 21.504-21.504 21.504z m96.768 0h-33.792c-11.776 0-20.992-9.728-21.504-21.504v-33.792c0-11.776 9.728-20.992 21.504-21.504h33.792c11.776 0 20.992 9.728 21.504 21.504v33.792c0 11.776-9.728 21.504-21.504 21.504z m96.768 0h-33.792c-11.776 0-20.992-9.728-21.504-21.504v-33.792c0-11.776 9.728-20.992 21.504-21.504H450.56c11.776 0 20.992 9.728 21.504 21.504v33.792c0 11.776-9.728 21.504-21.504 21.504z"  horiz-adv-x="1024" />

    
    <glyph glyph-name="shenji" unicode="&#58897;" d="M303.104 645.6320000000001h465.92c32.256 0 58.368-26.112 58.368-58.368v-465.92c0-32.256-26.112-58.368-58.368-58.368h-465.92c-32.256 0-58.368 26.112-58.368 58.368v465.92c0 32.256 26.112 58.368 58.368 58.368zM707.584 580.096L471.04 343.552l52.224-31.232 31.232-52.224L791.552 496.64l-83.968 83.456z m41.984 41.984l83.456-83.456 20.992 20.992c11.776 11.776 11.776 30.208 0 41.984l-41.984 41.984c-11.776 11.264-30.208 11.264-41.984 0l-20.48-21.504zM429.568 302.08000000000004l-13.824-13.824V204.79999999999995h83.456l13.824 13.824-31.232 52.224-52.224 31.232z m403.456 403.456L916.48 622.0799999999999c23.04-23.04 23.04-60.416 0-83.456l-393.216-393.216H356.352V312.32000000000005l393.216 393.216c23.04 23.04 60.416 23.04 83.456 0z m-246.784 53.248c0-16.384-13.312-29.696-29.696-29.696H202.24c-16.384 0-29.696-12.8-29.696-29.184v-650.24c0-16.384 13.312-29.184 29.696-29.184h649.728c16.384 0 29.696 12.8 29.696 29.184V286.72c0 16.384 13.312 29.696 29.696 29.696 16.384 0 29.696-13.312 29.696-29.696v-265.728c0-32.768-26.112-58.88-58.88-59.392H172.544c-32.768 0-58.88 26.624-58.88 59.392V729.088c0 32.768 26.112 58.88 58.88 59.392h384c16.384 0 29.696-13.312 29.696-29.696z"  horiz-adv-x="1024" />

    
    <glyph glyph-name="bangzhu" unicode="&#58898;" d="M609.792 637.952l195.072 16.384c27.648 3.072 52.224-16.384 55.808-43.52 0-2.048 0.512-3.584 0.512-5.632l1.536-271.36c-0.512-30.72-24.576-56.32-55.296-58.88l-195.072-16.384c-27.648-3.072-52.224 16.384-55.808 43.52 0 2.048-0.512 3.584-0.512 5.632l-1.536 271.36c0.512 30.72 24.576 56.32 55.296 58.88zM215.552 262.65599999999995c-10.24 0-17.92 8.192-17.92 17.92V615.9359999999999c0.512 32.256 26.624 58.368 58.88 57.856h45.056c33.28-2.048 66.048-11.264 95.744-26.112 9.216-4.096 13.312-14.336 9.216-23.552-4.096-9.216-14.336-13.312-23.552-9.216-25.6 12.8-53.248 20.992-81.408 23.04h-45.056c-12.288 0-22.528-9.728-22.528-21.504v-335.36c-0.512-10.24-8.192-17.92-18.432-18.432zM860.16 744.448c28.672 0.512 52.224-22.016 52.736-50.688v-461.312c-0.512-28.672-24.064-51.2-52.736-50.688h-87.552c-70.144 0-139.264-14.336-203.776-41.984l-50.176-21.504-50.176 21.504c-64.512 27.648-133.632 41.984-203.776 41.984H177.152c-28.672-0.512-52.224 22.016-52.736 50.688V693.76c0.512 28.672 24.064 51.2 52.736 50.688h87.552c55.808 0 110.592-11.264 161.792-33.28l50.176-21.504c26.624-11.264 56.832-11.264 83.456 0l50.176 21.504c51.2 22.016 105.984 33.28 161.792 33.28H860.16m0 53.248h-87.552c-62.976 0-124.928-12.8-182.784-37.376l-50.176-21.504c-13.312-5.632-28.16-5.632-41.984 0l-50.176 21.504c-57.856 24.576-119.808 37.376-182.784 37.376H177.152c-57.856 0.512-105.472-46.08-105.984-103.936v-461.312c0.512-57.856 47.616-104.448 105.984-103.936h87.552c62.976 0 124.928-12.8 182.784-37.376l50.176-21.504c13.312-5.632 28.16-5.632 41.984 0l50.176 21.504c57.856 24.576 119.808 37.376 182.784 37.376H860.16c57.856-0.512 105.472 46.08 105.984 103.936V693.76c-1.024 57.856-48.128 104.448-105.984 103.936z"  horiz-adv-x="1024" />

    
    <glyph glyph-name="xitongshezhi" unicode="&#58901;" d="M501.76 362.496m-187.904 0a187.904 187.904 0 1 1 375.808 0 187.904 187.904 0 1 1-375.808 0ZM867.52256 465.78688l-49.152 17.408c-6.656 2.048-10.24 9.728-8.192 16.384 0 0.512 0.512 1.024 0.512 1.024l22.016 46.592c25.6 54.784 2.048 120.32-52.736 145.92-29.696 13.824-63.488 13.824-93.184 0l-46.592-22.016c-3.584-1.536-7.168-1.536-10.752 0-3.072 1.536-5.632 4.096-7.168 7.68l-17.408 49.152c-20.48 56.832-83.456 86.528-140.288 66.048-30.72-11.264-55.296-35.328-66.048-66.048l-17.408-49.152c-1.024-3.584-3.584-6.144-7.168-7.68-3.584-1.536-7.168-1.536-10.752 0l-46.592 22.016c-54.784 25.6-120.32 2.048-145.92-52.736-13.824-29.696-13.824-63.488 0-93.184l22.016-46.592c3.072-6.656 0-13.824-6.144-16.896-0.512 0-1.024-0.512-1.024-0.512l-49.152-17.408c-56.832-20.48-86.528-83.456-66.048-140.288 11.264-30.72 35.328-55.296 66.048-66.048l49.152-17.408c6.656-2.048 10.24-9.728 8.192-16.384 0-0.512-0.512-1.024-0.512-1.024l-22.016-46.592c-25.6-54.784-2.048-120.32 52.736-145.92 29.696-13.824 63.488-13.824 93.184 0l46.592 22.016c3.584 1.536 7.168 1.536 10.752 0 3.072-1.536 5.632-4.096 7.168-7.68l17.408-49.152c20.48-56.832 83.456-86.528 140.288-66.048 30.72 11.264 55.296 35.328 66.048 66.048l17.408 48.64c2.56 6.656 9.728 10.24 16.384 8.192 0.512 0 0.512 0 1.024-0.512l46.592-22.016c54.784-25.6 120.32-2.048 145.92 52.736 13.824 29.696 13.824 63.488 0 93.184l-22.016 46.592c-3.072 6.656 0 13.824 6.144 16.896 0.512 0 1.024 0.512 1.024 0.512l49.152 17.408c56.832 20.48 86.528 83.456 66.048 140.288-11.264 30.72-35.328 55.296-66.048 66.048v0.512z m-19.968-152.064l-49.152-17.408c-36.864-13.312-56.32-54.272-43.008-91.136 1.024-2.048 1.536-4.096 2.56-6.656l22.016-46.592c12.288-25.6 1.024-56.32-24.576-68.096a49.92 49.92 0 0 0-43.52 0l-46.592 22.016c-35.328 16.896-77.824 1.536-94.72-33.792-1.024-2.048-2.048-4.096-2.56-6.656l-17.408-48.64c-9.728-26.624-39.424-39.936-66.048-30.208-13.824 5.12-25.088 16.384-30.208 30.208l-17.408 49.152c-13.312 36.864-54.272 56.32-91.136 43.008-2.048-1.024-4.096-1.536-6.656-2.56l-46.592-22.016c-25.6-11.776-56.32-0.512-68.096 25.088-6.144 13.312-6.144 29.184 0 42.496l22.016 46.592c16.896 35.328 1.536 77.824-33.792 94.72-2.048 1.024-4.096 2.048-6.656 2.56l-49.152 17.408c-26.624 9.728-39.936 39.424-30.208 66.048 5.12 13.824 16.384 25.088 30.208 30.208l49.152 17.408c36.864 13.312 56.32 53.76 43.52 91.136-1.024 2.56-2.048 4.608-3.072 7.168l-22.016 46.592c-12.288 25.6-1.024 56.32 24.576 68.096 13.824 6.656 29.696 6.656 43.52 0l46.592-22.016c35.328-16.896 77.824-1.536 94.72 33.792 1.024 2.048 2.048 4.096 2.56 6.656l17.408 49.152c9.728 26.624 39.424 39.936 66.048 30.208 13.824-5.12 25.088-16.384 30.208-30.208l17.408-49.152c13.312-36.864 54.272-56.32 91.136-43.008 2.048 1.024 4.096 1.536 6.656 2.56l46.592 22.016c25.6 12.288 56.32 2.048 68.608-23.552 6.656-14.336 7.168-30.72 0-44.544l-22.016-46.592c-16.896-35.328-1.536-77.824 33.792-94.72 2.048-1.024 4.096-2.048 6.656-2.56l49.152-17.408c26.624-9.728 39.936-39.424 30.208-66.048-5.12-13.824-16.384-25.088-30.208-30.208l-0.512-0.512zM500.41856 494.45888c-71.168 0-128.512-57.344-128.512-128.512 0-71.168 57.344-128.512 128.512-128.512 71.168 0 128.512 57.344 128.512 128.512 0 71.168-57.344 128.512-128.512 128.512z m0-206.848c-43.52 0-78.848 35.328-78.848 78.848s35.328 78.848 78.848 78.848 78.848-35.328 78.848-78.848c0-44.032-35.328-78.848-78.848-78.848z"  horiz-adv-x="1024" />

    
    <glyph glyph-name="jiaoseguanli" unicode="&#58902;" d="M700.928 366.08000000000004m-131.072 0a131.072 131.072 0 1 1 262.144 0 131.072 131.072 0 1 1-262.144 0ZM335.36-66.96960000000001H176.128c-51.2 0-92.672 41.472-92.672 92.672V729.1904c0 51.2 41.472 92.672 92.672 92.672h663.04c51.2 0 93.184-41.472 93.696-92.672v-263.68c0-15.872-12.8-28.16-28.16-28.16-15.872 0-28.16 12.8-28.16 28.16v263.68c0 20.48-16.384 36.864-36.864 36.864H176.128c-20.48 1.024-37.888-14.336-38.912-34.304v-706.048c0-20.48 16.384-36.864 36.864-36.864h161.28c15.872 0 28.16-12.8 28.16-28.16 0-15.872-12.8-28.16-28.16-28.16v0.512zM727.552 600.1664000000001h-460.8c-15.872 0-28.16 12.8-28.16 28.16s12.8 28.16 28.16 28.16h460.8c15.872 0 28.16-12.8 28.16-28.16s-12.8-27.648-28.16-28.16z m-246.784-169.472H266.752c-15.872 0-28.16 12.8-28.16 28.16s12.8 28.16 28.16 28.16h214.016c15.872 0 28.16-12.8 28.16-28.16s-12.288-28.16-28.16-28.16z m228.864-252.416c-93.696 0-169.984 75.776-169.984 169.984s75.776 169.472 169.984 169.472c93.696 0 169.984-75.776 169.984-169.984-0.512-93.696-76.288-169.472-169.984-169.472z m0 287.232c-62.464 0-113.152-50.688-113.152-113.152 0-62.464 50.688-113.152 113.152-113.152 62.464 0 113.152 50.688 113.152 113.152 0 29.696-11.776 57.856-32.256 78.848-21.504 22.016-50.688 34.304-80.896 34.304zM954.368-66.96960000000001c-15.872 0-28.16 12.8-28.16 28.16 0 119.808-97.28 216.576-217.088 216.576-119.296 0-216.064-96.768-216.576-216.576 0-15.872-12.8-28.16-28.16-28.16-15.872 0-28.16 12.8-28.16 28.16 0 150.528 122.368 272.896 272.896 272.896s272.896-122.368 272.896-272.896c0-14.848-12.288-27.648-27.648-28.16z"  horiz-adv-x="1024" />

    
    <glyph glyph-name="zhanghuguanli" unicode="&#58903;" d="M259.584 670.72h501.248c42.496 0 77.312-34.304 77.312-77.312v-462.848c0-42.496-34.304-77.312-77.312-77.312H259.584c-42.496 0-77.312 34.304-77.312 77.312V593.408c0 42.496 34.816 77.312 77.312 77.312zM852.48 804.864H160.256C102.4 804.864 55.296 757.76 55.296 699.904v-656.896c0-57.856 47.104-104.96 104.96-104.96h692.224c57.856 0 104.96 47.104 104.96 104.96V699.904c0 57.856-47.104 104.96-104.96 104.96z m0-803.84H160.256c-23.04 0-41.984 18.944-41.984 41.984V699.904c0 23.04 18.944 41.984 41.984 41.984h692.224c23.04 0 41.984-18.944 41.984-41.984v-99.84h-157.696c-17.408 0-31.744-14.336-31.744-31.744s14.336-31.744 31.744-31.744h157.696v-125.44h-157.696c-17.408 0-31.744-14.336-31.744-31.744 0-17.408 14.336-31.744 31.744-31.744h157.696v-125.952h-157.696c-17.408 0-31.744-14.336-31.744-31.744s14.336-31.744 31.744-31.744h157.696v-115.712c0-22.528-18.944-41.472-41.984-41.472zM517.12 374.27200000000005c59.904 55.296 64 148.992 8.192 209.408-55.296 59.904-148.992 64-209.408 8.192s-64-148.992-8.192-209.408c2.56-3.072 5.632-5.632 8.192-8.192-76.288-37.888-124.928-116.224-124.928-201.728 0-17.408 14.336-31.744 31.744-31.744 17.408 0 31.744 14.336 31.744 31.744 1.536 89.6 75.264 161.28 164.864 159.744 87.552-1.536 158.208-72.192 159.744-159.744 0-17.408 14.336-31.744 31.744-31.744 17.408 0 31.744 14.336 31.744 31.744-0.512 86.016-48.64 163.84-125.44 201.728zM416.768 568.3199999999999C463.872 568.3199999999999 501.76 530.432 501.76 483.328c0-47.104-37.888-84.992-84.992-84.992-47.104 0-84.992 37.888-84.992 84.992 0 47.104 37.888 84.992 84.992 84.992z"  horiz-adv-x="1024" />

    
    <glyph glyph-name="caidanguanli" unicode="&#58904;" d="M284.16 728.576c56.32 0 101.888-46.08 101.376-102.4 0-56.32-46.08-101.888-102.4-101.376-56.32 0-101.376 45.568-101.376 101.888 0.512 56.832 46.08 102.4 102.4 101.888zM891.71456 834.048h-288.256c-31.744 0-57.344-25.6-57.344-57.344v-288.256c0-31.744 25.6-57.344 57.344-57.344h288.256c31.744 0 57.344 25.6 57.344 57.344V776.704c-0.512 31.744-26.112 57.344-57.344 57.344z m-290.816-56.832c0 1.536 1.024 2.56 2.56 2.56h288.256c1.536 0 2.56-1.024 2.56-2.56v-288.256c0-1.536-1.024-2.56-2.56-2.56h-288.256c-1.536 0-2.56 1.024-2.56 2.56V777.216z m290.816-410.112h-288.256c-31.744 0-57.344-25.6-57.344-57.344v-288.256c0-31.744 25.6-57.344 57.344-57.344h288.256c31.744 0 57.344 25.6 57.344 57.344v288.256c-0.512 31.744-26.112 57.344-57.344 57.344z m-290.816-57.344c0 1.536 1.024 2.56 2.56 2.56h288.256c1.536 0 2.56-1.024 2.56-2.56v-288.256c0-1.536-1.024-2.56-2.56-2.56h-288.256c-1.536 0-2.56 1.024-2.56 2.56v288.256z m-177.664 57.344h-288.256c-31.744 0-57.344-25.6-57.344-57.344v-288.256c0-31.744 25.6-57.344 57.344-57.344h288.256c31.744 0 57.344 25.6 57.344 57.344v288.256c0 31.744-26.112 57.344-57.344 57.344z m-290.816-57.344c0 1.536 1.024 2.56 2.56 2.56h288.256c1.536 0 2.56-1.024 2.56-2.56v-288.256c0-1.536-1.024-2.56-2.56-2.56h-288.256c-1.536 0-2.56 1.024-2.56 2.56v288.256zM403.77856 790.016c-91.136 69.632-221.184 52.224-290.304-38.912-12.288-15.872-22.016-33.28-29.184-51.712-1.024-2.048-1.536-4.096-1.536-6.144-14.848-44.032-15.36-91.136-0.512-135.168 0.512-1.536 0.512-3.072 1.024-4.608 18.944-50.176 56.832-91.648 104.96-115.2l3.072-1.536c27.136-12.288 56.32-18.944 86.528-18.944 11.776 0 23.552 1.024 35.328 3.072 112.64 19.456 188.416 126.464 168.96 239.104-7.168 41.984-27.136 80.896-57.856 111.104-6.144 6.656-13.312 12.8-20.48 18.944z m24.064-163.328c0.512-82.944-66.048-150.528-148.992-151.04h-1.024c-57.856 0.512-110.08 33.28-135.168 85.504-0.512 1.024-0.512 2.048-1.024 2.56-33.792 75.264-0.512 163.84 74.752 198.144 75.264 33.792 163.84 0.512 198.144-74.752 8.192-18.944 12.8-39.936 13.312-60.416zM623.104 753.152h250.368v-228.352h-250.368zM623.104 292.352h250.368v-257.024h-250.368zM152.064 292.352h257.024v-257.024H152.064z"  horiz-adv-x="1024" />

    
    <glyph glyph-name="shujuweihu" unicode="&#58905;" d="M357.376 711.168h242.688c67.072 0 121.344-58.88 121.344-131.584v-329.216c0-72.704-54.272-131.584-121.344-131.584H357.376c-67.072 0-121.344 58.88-121.344 131.584V579.5840000000001c0 72.704 54.272 131.584 121.344 131.584zM495.104-22.015999999999963H238.08c-50.688 0-92.16 41.472-92.16 92.16v588.8c0 8.192 3.072 15.872 9.216 21.504l163.84 163.84C324.608 849.92 332.8 853.504 340.48 853.504h410.624c50.688 0 92.16-41.472 92.16-92.16V419.84c-0.512-16.896-14.848-30.208-31.744-29.696-16.384 0.512-29.184 13.312-29.696 29.696V761.344c0 16.896-13.824 30.72-30.72 30.72H353.28L207.36 646.144v-576c0-16.896 13.824-30.72 30.72-30.72h256.512c16.896-0.512 30.208-14.848 29.696-31.744 0-16.384-13.312-29.184-29.184-29.696z m232.448 283.648c12.288 1.536 24.064-7.168 25.6-19.456 0.512-2.048 0.512-4.096 0-6.144v-92.16c0-14.336-11.264-25.6-25.6-25.6s-25.6 11.264-25.6 25.6v92.16c-1.536 12.288 7.168 24.064 19.456 25.6 2.048 0.512 4.096 0.512 6.144 0z m-25.6-189.44c0-14.336 11.264-25.6 25.6-25.6s25.6 11.264 25.6 25.6-11.264 25.6-25.6 25.6c-13.824 0-25.6-11.264-25.6-25.6zM668.16 588.8H318.464c-16.896 0.512-30.208 14.848-29.696 31.744 0.512 16.384 13.312 29.184 29.696 29.696h349.696c16.896 0 18.432-13.824 18.432-30.72s-1.024-30.72-18.432-30.72z m62.464-634.88c-109.568 0-198.144 88.576-198.144 198.144s88.576 198.144 198.144 198.144c109.568 0 198.144-88.576 198.144-198.144 0-109.056-88.576-197.632-198.144-198.144z m0 345.088c-80.896 0-146.944-65.536-146.944-146.944s65.536-146.944 146.944-146.944c80.896 0 146.944 65.536 146.944 146.944 0 81.408-66.048 146.944-146.944 146.944zM669.696 419.84H320c-16.896 0.512-30.208 14.848-29.696 31.744 0.512 16.384 13.312 29.184 29.696 29.696h349.696c16.896 0 18.432-13.824 18.432-30.72s-1.536-30.72-18.432-30.72z m-176.128-180.736H320c-16.896-0.512-31.232 12.8-31.744 29.696-0.512 16.896 12.8 31.232 29.696 31.744h175.616c16.896-0.512 30.208-14.848 29.696-31.744-0.512-15.872-13.824-29.184-29.696-29.696z"  horiz-adv-x="1024" />

    
    <glyph glyph-name="jigouliebiao" unicode="&#58906;" d="M297.472 654.336h437.248c40.448 0 72.704-32.768 72.704-72.704v-437.248c0-40.448-32.768-72.704-72.704-72.704H297.472c-40.448 0-72.704 32.768-72.704 72.704V581.6320000000001c0 40.448 32.768 72.704 72.704 72.704zM815.104-44.03200000000004H223.744c-81.92 0-147.968 66.56-147.968 147.968V653.312c0 81.408 66.048 147.968 147.968 147.968h591.36c81.408 0 147.968-66.048 147.968-147.968v-549.376c0-81.408-66.048-147.456-147.968-147.968zM223.744 758.784c-58.368 0-105.472-47.104-105.472-105.472v-549.376c0-58.368 47.104-105.472 105.472-105.472h591.36c58.368 0 105.472 47.104 105.472 105.472V653.312c0 58.368-47.104 105.472-105.472 105.472H223.744zM772.608 547.8399999999999h-506.88c-11.776 0-20.992 9.216-20.992 20.992s9.216 20.992 20.992 20.992h506.88c11.776 0 20.992-9.216 20.992-20.992 0.512-11.776-9.216-20.992-20.992-20.992z m0-190.464h-506.88c-11.776 0-20.992 9.216-20.992 20.992s9.216 20.992 20.992 20.992h506.88c11.776 0 20.992-9.216 20.992-20.992s-9.216-20.992-20.992-20.992z m0-189.952h-506.88c-11.776 0-20.992 9.728-20.992 20.992 0 11.776 9.728 20.992 20.992 20.992h506.88c11.776 0 20.992-9.728 20.992-20.992 0.512-11.264-9.216-20.992-20.992-20.992zM392.704 505.344c-11.776 0-20.992 9.216-20.992 20.992V610.816c0 11.776 9.216 20.992 20.992 20.992s20.992-9.216 20.992-20.992v-84.48c0-11.264-9.216-20.992-20.992-20.992z m253.44-189.952c-11.776 0-20.992 9.216-20.992 20.992V420.864c0 11.776 9.216 20.992 20.992 21.504 11.776 0 20.992-9.216 21.504-20.992v-84.48c-0.512-12.288-9.728-21.504-21.504-21.504z m-253.44-189.952c-11.776 0-20.992 9.728-20.992 20.992v84.48c0 11.776 9.216 20.992 20.992 20.992s20.992-9.216 20.992-20.992v-84.48c0-11.776-9.216-20.992-20.992-20.992z"  horiz-adv-x="1024" />

    
    <glyph glyph-name="biaoqianku" unicode="&#58907;" d="M600.064 652.288l170.496-170.496c23.552-23.552 23.552-61.44 0-84.992l-255.488-255.488c-23.552-23.552-61.44-23.552-84.992 0l-170.496 170.496c-23.552 23.552-23.552 61.44 0 84.992l255.488 255.488c23.04 23.552 61.44 23.552 84.992 0zM457.728-68.096c13.824-13.824 35.84-13.824 49.664 0l419.84 419.84c6.656 6.656 10.24 15.872 10.24 25.6l-9.728 395.264c-0.512 18.432-14.848 33.28-33.28 33.792l-405.504 19.968c-9.728 0.512-19.456-3.072-26.624-10.24l-419.84-419.84c-13.824-13.824-13.824-35.84 0-49.152l415.232-415.232z m43.52 824.32l357.376-17.408 8.704-347.648-384.512-385.024-365.568 365.568 384 384.512z m84.992-211.456L354.304 312.32000000000005c-13.824-13.312-36.352-12.8-49.664 1.024-12.8 13.312-12.8 34.816 0 48.128L537.088 593.9200000000001c13.824 13.312 35.84 12.8 49.152-1.024 12.8-13.824 12.8-34.816 0-48.128z m-103.424-360.96c-13.824-13.312-36.352-12.8-49.664 1.024-12.8 13.312-12.8 34.816 0 48.128l153.088 153.088c13.824 13.312 36.352 12.8 49.664-1.024 12.8-13.312 12.8-34.816 0-48.128l-153.088-153.088z m261.632 439.808c-16.384 16.384-16.384 43.008 0 59.392 16.384 16.384 43.008 16.384 59.392 0s16.384-43.008 0-59.392c-16.384-16.384-43.008-16.384-59.392 0z"  horiz-adv-x="1024" />

    
    <glyph glyph-name="zhibiaochi" unicode="&#58908;" d="M271.872 632.3199999999999h509.952c40.448 0 72.704-32.768 72.704-72.704v-437.248c0-40.448-32.768-72.704-72.704-72.704H271.872c-40.448 0-72.704 32.768-72.704 72.704V559.104c0 40.448 32.768 73.216 72.704 73.216zM940.48256 468.992c-15.872 0-28.672 12.8-28.672 28.672V567.296c0.512 15.872 13.824 28.16 29.696 27.648 15.36-0.512 27.136-12.8 27.648-27.648v-69.12c0-16.384-12.8-29.184-28.672-29.184z m-545.28 187.392c-15.872 0-28.672 12.8-28.672 28.672V821.76c0.512 15.872 13.824 28.16 29.696 27.648 15.36-0.512 27.136-12.8 27.648-27.648v-136.704c0-15.872-12.8-28.672-28.672-28.672z m130.56 0c-15.872 0-28.672 12.8-28.672 28.672V821.76c0.512 15.872 13.824 28.16 29.696 27.648 15.36-0.512 27.136-12.8 27.648-27.648v-136.704c0-15.872-12.8-28.672-28.672-28.672z m130.56 0c-15.872 0-28.672 12.8-28.672 28.672V821.76c-0.512 15.872 11.776 29.184 27.648 29.696 15.872 0.512 29.184-11.776 29.696-27.648V685.056c0-15.872-12.8-28.672-28.672-28.672zM748.99456 397.312c-15.872 0-28.672 12.8-28.672 28.672V521.216h-93.184c-15.872-0.512-29.184 11.776-29.696 27.648-0.512 15.872 11.776 29.184 27.648 29.696H745.92256c17.92 0 32.768-14.848 32.768-32.768v-120.32c-0.512-15.36-13.312-28.16-29.696-28.16 0.512 0 0 0 0 0zM330.69056 113.66399999999999c-15.872 0-28.672 12.8-28.672 28.672v136.704c-0.512 15.872 11.776 29.184 27.648 29.696 15.872 0.512 29.184-11.776 29.696-27.648V142.336c0-15.872-12.8-28.672-28.672-28.672z m130.048 0c-15.872 0-28.672 12.8-28.672 28.672V373.76c0.512 15.872 13.824 28.16 29.696 27.648 15.36-0.512 27.136-12.8 27.648-27.648v-231.424c0-15.872-12.8-28.672-28.672-28.672z m130.048 0c-15.872 0-28.672 12.8-28.672 28.672v81.408c-0.512 15.872 11.776 29.184 27.648 29.696 15.872 0.512 29.184-11.776 29.696-27.648v-83.456c0.512-15.872-12.288-28.672-28.672-28.672z m130.56 0c-15.872 0-28.672 12.8-28.672 28.672v173.056c0.512 15.872 13.824 28.16 29.696 27.648 15.36-0.512 27.136-12.8 27.648-27.648v-173.056c0-15.872-12.8-28.672-28.672-28.672zM316.35456 363.00800000000004c-15.872 0-28.672 12.8-28.672 28.672 0 7.68 3.072 14.848 8.192 20.48l141.312 141.312c11.264 11.264 29.696 11.264 40.96 0l117.76-118.272 119.296 119.296c9.728 12.288 28.16 14.336 40.448 4.608 12.288-9.728 14.336-28.16 4.608-40.448-1.536-1.536-2.56-3.072-4.608-4.608l-139.264-139.776c-11.264-11.264-29.696-11.264-40.96 0l-118.272 118.272-120.832-120.832c-5.12-5.632-12.288-8.704-19.968-8.704zM940.48256 439.296c-15.872 0-28.672 12.8-28.672 28.672V540.672c0.512 15.872 13.824 28.16 29.696 27.648 15.36-0.512 27.136-12.8 27.648-27.648v-72.704c0-15.872-12.8-28.672-28.672-28.672zM915.39456-100.86400000000003c-15.872-1.024-29.696 10.752-30.72 27.136-1.024 15.872 10.752 29.696 27.136 30.72v422.912c0.512 15.872 13.824 28.16 29.696 27.648 15.36-0.512 27.136-12.8 27.648-27.648v-426.496c0-30.208-24.064-54.272-53.76-54.272zM915.39456-100.86400000000003c-15.872-1.024-29.696 10.752-30.72 27.136-1.024 15.872 10.752 29.696 27.136 30.72v368.64c-0.512 15.872 11.776 29.184 27.648 29.696 15.872 0.512 29.184-11.776 29.696-27.648v-373.76c0.512-30.208-23.552-54.784-53.76-54.784 0.512 0 0.512 0 0 0zM915.39456-100.86400000000003c-15.872-1.024-29.696 10.752-30.72 27.136-1.024 15.872 10.752 29.696 27.136 30.72v320c-0.512 15.872 11.776 29.184 27.648 29.696 15.872 0.512 29.184-11.776 29.696-27.648v-325.632c0.512-29.696-23.552-54.272-53.76-54.272 0.512 0 0 0 0 0zM915.39456-100.86400000000003h-779.264c-29.696 0-53.76 24.064-53.76 53.76V728.576c0 29.696 24.064 53.76 53.76 53.76h779.264c29.696 0 53.76-24.064 53.76-53.76v-90.624c-0.512-15.872-13.824-28.16-29.696-27.648-15.36 0.512-27.136 12.8-27.648 27.648V724.48h-771.584v-767.488h771.072v259.584c-0.512 15.872 11.776 29.184 27.648 29.696 15.872 0.512 29.184-11.776 29.696-27.648v-265.216c1.024-29.696-23.04-54.272-53.248-54.272z"  horiz-adv-x="1024" />

    
    <glyph glyph-name="renwuchi" unicode="&#58909;" d="M273.408 688.64h492.032c38.912 0 70.144-31.232 70.144-70.144v-492.032c0-38.912-31.232-70.144-70.144-70.144H273.408c-38.912 0-70.144 31.232-70.144 70.144V618.496c0 38.912 31.232 70.144 70.144 70.144zM160.768 768.512c-16.896 1.024-31.744-11.776-32.768-29.184v-725.504c-1.024-16.896 11.776-31.744 29.184-32.768h725.504c16.896-1.024 31.744 11.776 32.768 29.184V735.744c1.024 16.896-11.776 31.744-29.184 32.768h-3.584-721.92z m0 65.536h721.92c53.76-1.536 97.28-44.544 98.304-98.304v-721.92c-1.536-53.76-44.544-97.28-98.304-98.304h-721.92c-53.76 1.536-97.28 44.544-98.304 98.304v721.92c1.024 53.76 44.544 96.768 98.304 98.304z m393.728-262.656h196.608c16.896 1.024 31.744-11.776 32.768-29.184v-3.584c1.024-16.896-11.776-31.744-29.184-32.768h-200.192c-16.896-1.024-31.744 11.776-32.768 29.184v3.584c-1.024 16.896 11.776 31.744 29.184 32.768h3.584z m-197.12-393.728c17.92 0 32.768 14.848 32.768 32.768 0 17.92-14.848 32.768-32.768 32.768-17.92 0-32.768-14.848-32.768-32.768 0-17.92 14.848-32.768 32.768-32.768z m0-65.536c-54.272 0-98.304 44.032-98.304 98.304s44.032 98.304 98.304 98.304S455.68 264.70399999999995 455.68 210.43200000000002s-43.52-98.304-98.304-98.304z m-6.144 400.384L279.04 584.704c-13.312 12.288-33.792 11.776-46.08-1.536-11.776-12.288-11.776-31.744 0-44.544l91.648-91.648c7.168-6.656 16.384-11.264 26.112-13.312 9.216-1.024 18.432 1.536 26.112 6.656l137.728 137.728c12.8 12.8 12.8 33.28 0 46.08s-33.28 12.8-46.08 0L351.232 512.512z m203.264-268.8h196.608c17.92 0 32.768-14.848 32.768-32.768 0-17.92-14.848-32.768-32.768-32.768h-196.608c-17.92 0-32.768 14.848-32.768 32.768 0 17.92 14.848 32.768 32.768 32.768z"  horiz-adv-x="1024" />
  </font>
</defs>
</svg>
